<?xml version="1.0" encoding="utf-8"?>
<!-- Generator: Adobe Illustrator 17.0.0, SVG Export Plug-In . SVG Version: 6.00 Build 0)  -->
<!DOCTYPE svg PUBLIC "-//W3C//DTD SVG 1.1//EN" "http://www.w3.org/Graphics/SVG/1.1/DTD/svg11.dtd">
<svg version="1.1" xmlns="http://www.w3.org/2000/svg" xmlns:xlink="http://www.w3.org/1999/xlink" x="0px" y="0px"
	 width="375.266px" height="346px" viewBox="0 0 375.266 346" enable-background="new 0 0 375.266 346" xml:space="preserve">
<g id="Layer_1">
</g>
<g id="Layer_2">
	<polyline fill="#FFFFFF" stroke="#FFFFFF" stroke-miterlimit="10" points="294.266,53.5 294.266,345.5 47.266,345.5 47.266,0.5 
		247.265,0.5 	"/>
	<path fill="#FFFFFF" d="M294.266,53.5"/>
	<path fill="#FFFFFF" d="M294.266,0.5"/>
	<path fill="#FFFFFF" d="M294.266,0.5"/>
	<path fill="#FFFFFF" d="M247.265,0.5"/>
	<polygon fill="#397FC2" points="247.265,0.5 294.116,52.99 244.103,50.477 	"/>
	<line fill="#FFFFFF" x1="66.766" y1="58.167" x2="173.599" y2="58.167"/>
	<line fill="#F1F2F2" stroke="#FFFFFF" stroke-miterlimit="10" x1="167.338" y1="321.75" x2="212.766" y2="321.75"/>
</g>
<g id="Layer_4">
	<line fill="#9CDBF4" stroke="#8CD7F6" stroke-width="2" stroke-miterlimit="10" x1="66.766" y1="53.5" x2="158.599" y2="53.5"/>
	<line fill="none" stroke="#8CD7F6" stroke-width="2" stroke-miterlimit="10" x1="66.766" y1="63.833" x2="176.933" y2="63.833"/>
	<line fill="none" stroke="#8CD7F6" stroke-width="2" stroke-miterlimit="10" x1="66.766" y1="74.5" x2="176.933" y2="74.5"/>
</g>
<g id="Layer_5">
	<g>
		<rect x="209.675" y="230.581" fill="#397FC2" width="165.301" height="105.919"/>
		<polygon fill="#603393" points="209.384,230.277 375.266,230 292.358,288.5 		"/>
	</g>
	<g id="Layer_7">
		<g>
			<circle fill="#397FC2" cx="295.11" cy="163.25" r="49.75"/>
			<circle fill="#9D2D91" cx="295.11" cy="163.25" r="21"/>
			<circle fill="#FFFFFF" stroke="#FFFFFF" stroke-miterlimit="10" cx="295.11" cy="163.25" r="14.172"/>
			<path fill="#8AD5ED" d="M295.11,148.565c8.094,0,14.655,6.575,14.655,14.685c0,8.108-6.561,14.684-14.655,14.684"/>
		</g>
	</g>
</g>
<g id="Layer_8">
	<g>
		<rect x="190.585" y="207.489" fill="#9CDBF4" width="8.127" height="127.452"/>
		<polygon fill="#7A7B7B" points="190.896,207.496 194.648,195.861 198.401,207.496 		"/>
		<rect x="194.497" y="195.5" fill="#070808" width="0.303" height="0.721"/>
		<circle fill="#603393" cx="194.497" cy="273.117" r="2.25"/>
		<circle fill="#9D2D91" cx="194.497" cy="279.465" r="2.25"/>
		<circle fill="#397FC2" cx="194.497" cy="285.814" r="2.25"/>
		<rect x="190.281" y="296.98" fill="#397FC2" width="8.735" height="38.438"/>
	</g>
</g>
<g id="Layer_6">
	<line fill="none" stroke="#FFFFFF" stroke-miterlimit="10" x1="127.266" y1="264.018" x2="164.196" y2="264.018"/>
</g>
<g id="Layer_3">
	<circle fill="#603393" cx="73.766" cy="26.5" r="7"/>
	<circle fill="#9D2D91" cx="93.516" cy="26.5" r="7"/>
	<circle fill="#397FC2" cx="113.266" cy="26.5" r="7"/>
	<g>
		<path fill="#333333" d="M75,323.5c0,6.627-5.373,12-12,12H12c-6.627,0-12-5.373-12-12V204c0-6.627,5.373-12,12-12h51
			c6.627,0,12,5.373,12,12V323.5z"/>
		<rect x="5" y="202.5" fill="#FFFFFF" width="64.5" height="19.5"/>
		<circle fill="#545554" cx="39.5" cy="324.794" r="7.294"/>
		<circle fill="#603393" cx="10.822" cy="208.25" r="3.25"/>
		<circle fill="#9D2D91" cx="19.992" cy="208.25" r="3.25"/>
		<circle fill="#397FC2" cx="29.162" cy="208.25" r="3.25"/>
		<rect x="5" y="222" fill="#9D2D91" width="64.5" height="22"/>
		<rect x="5" y="244" fill="#603393" width="64.5" height="70"/>
	</g>
	<g id="Layer_9">
		<g>
			<path fill="#9CDBF4" stroke="#8CD7F6" stroke-width="2" stroke-miterlimit="10" d="M125.266,313c0,6.627-5.373,12-12,12h-39.5
				c-6.627,0-12-5.373-12-12v-16.5c0-6.627,5.373-12,12-12h39.5c6.627,0,12,5.373,12,12V313z"/>
			<line fill="none" stroke="#FFFFFF" stroke-miterlimit="10" x1="67.338" y1="304.75" x2="112.766" y2="304.75"/>
			<line fill="none" stroke="#FFFFFF" stroke-miterlimit="10" x1="67.338" y1="312.5" x2="104.266" y2="312.5"/>
			<circle fill="#603393" cx="70.588" cy="294.75" r="3.25"/>
			<circle fill="#9D2D91" cx="79.758" cy="294.75" r="3.25"/>
			<circle fill="#397FC2" cx="88.928" cy="294.75" r="3.25"/>
		</g>
	</g>
</g>
</svg>
