<?xml version="1.0" encoding="UTF-8" standalone="no"?>
<!-- Created with Inkscape (http://www.inkscape.org/) -->

<svg
   xmlns:dc="http://purl.org/dc/elements/1.1/"
   xmlns:cc="http://creativecommons.org/ns#"
   xmlns:rdf="http://www.w3.org/1999/02/22-rdf-syntax-ns#"
   xmlns:svg="http://www.w3.org/2000/svg"
   xmlns="http://www.w3.org/2000/svg"
   version="1.1"
   width="48.285999"
   height="41.817001"
   viewBox="0 0 48.286 41.817"
   id="Layer_1"
   xml:space="preserve"><metadata
   id="metadata25"><rdf:RDF><cc:Work
       rdf:about=""><dc:format>image/svg+xml</dc:format><dc:type
         rdf:resource="http://purl.org/dc/dcmitype/StillImage" /><dc:title></dc:title></cc:Work></rdf:RDF></metadata><defs
   id="defs23" />
<g
   id="g3">
	<polygon
   points="29.278,24.923 31.603,28.896 48.286,0 43.667,0 "
   id="polygon5"
   style="fill:#ffffff" />
	<polygon
   points="4.618,0 0,0 24.143,41.817 30.266,31.212 27.935,27.25 24.143,33.817 "
   id="polygon7"
   style="fill:#ffffff" />
</g>
<g
   id="g9">
	<polygon
   points="12.084,0 7.465,0 24.143,28.889 26.499,24.809 24.167,20.847 24.143,20.889 "
   id="polygon11"
   style="fill:#ffffff" />
	<polygon
   points="25.522,18.501 27.846,22.475 40.821,0 36.203,0 "
   id="polygon13"
   style="fill:#ffffff" />
</g>
<g
   id="g15">
	<polygon
   points="24.143,8.231 19.392,0 14.773,0 24.143,16.231 24.168,16.188 20.282,9.542 24.168,16.188 33.514,0 28.895,0 "
   id="polygon17"
   style="fill:#ffffff" />
</g>
<rect
   width="4.0900002"
   height="8.0889997"
   x="23.372"
   y="22.952999"
   transform="matrix(0.8638,-0.5038,0.5038,0.8638,-10.1405,16.4829)"
   id="rect19"
   style="fill:#ffffff" />
</svg>