<?xml version="1.0" encoding="utf-8"?>
<!-- Generator: Adobe Illustrator 17.0.0, SVG Export Plug-In . SVG Version: 6.00 Build 0)  -->
<!DOCTYPE svg PUBLIC "-//W3C//DTD SVG 1.1//EN" "http://www.w3.org/Graphics/SVG/1.1/DTD/svg11.dtd">
<svg version="1.1"
	 id="Layer_1" xmlns:dc="http://purl.org/dc/elements/1.1/" xmlns:cc="http://creativecommons.org/ns#" xmlns:rdf="http://www.w3.org/1999/02/22-rdf-syntax-ns#" xmlns:svg="http://www.w3.org/2000/svg"
	 xmlns="http://www.w3.org/2000/svg" xmlns:xlink="http://www.w3.org/1999/xlink" x="0px" y="0px" width="48.286px"
	 height="41.817px" viewBox="0 0 48.286 41.817" enable-background="new 0 0 48.286 41.817" xml:space="preserve">
<g id="g3">
	<polygon id="polygon5" fill="#DBDBDB" points="29.278,24.923 31.603,28.896 48.286,0 43.667,0 	"/>
	<polygon id="polygon7" fill="#DBDBDB" points="4.618,0 0,0 24.143,41.817 30.266,31.212 27.935,27.25 24.143,33.817 	"/>
</g>
<g id="g9">
	<polygon id="polygon11" fill="#DBDBDB" points="12.084,0 7.465,0 24.143,28.889 26.499,24.809 24.167,20.847 24.143,20.889 	"/>
	<polygon id="polygon13" fill="#DBDBDB" points="25.522,18.501 27.846,22.475 40.821,0 36.203,0 	"/>
</g>
<g id="g15">
	<polygon id="polygon17" fill="#DBDBDB" points="24.143,8.231 19.392,0 14.773,0 24.143,16.231 24.168,16.188 20.282,9.542 
		24.168,16.188 33.514,0 28.895,0 	"/>
</g>
<rect id="rect19" x="23.371" y="22.954" transform="matrix(-0.8638 0.5038 -0.5038 -0.8638 60.9727 37.515)" fill="#DBDBDB" width="4.09" height="8.089"/>
</svg>
