<?xml version="1.0" encoding="utf-8"?>
<!-- Generator: Adobe Illustrator 16.0.0, SVG Export Plug-In . SVG Version: 6.00 Build 0)  -->
<!DOCTYPE svg PUBLIC "-//W3C//DTD SVG 1.1//EN" "http://www.w3.org/Graphics/SVG/1.1/DTD/svg11.dtd">
<svg version="1.1" id="Layer_1" xmlns="http://www.w3.org/2000/svg" xmlns:xlink="http://www.w3.org/1999/xlink" x="0px" y="0px"
	 width="48.286px" height="41.817px" viewBox="0 0 48.286 41.817" enable-background="new 0 0 48.286 41.817" xml:space="preserve">
<g>
	<polygon fill="#FFFFFF" points="43.667,0 29.278,24.923 31.603,28.896 48.286,0 	"/>
	<polygon fill="#FFFFFF" points="24.143,33.817 4.618,0 0,0 24.143,41.817 30.266,31.212 27.935,27.25 	"/>
</g>
<g>
	<polygon fill="#FFFFFF" points="24.143,20.889 12.084,0 7.465,0 24.143,28.889 26.499,24.809 24.167,20.847 	"/>
	<polygon fill="#FFFFFF" points="36.203,0 25.522,18.501 27.846,22.475 40.821,0 	"/>
</g>
<g>
	<polygon fill="#FFFFFF" points="28.895,0 24.143,8.231 19.392,0 14.773,0 24.143,16.231 24.168,16.188 20.282,9.542 24.168,16.188 
		33.514,0 	"/>
</g>
<rect x="23.372" y="22.953" transform="matrix(0.8638 -0.5038 0.5038 0.8638 -10.1405 16.4829)" fill="#FFFFFF" width="4.09" height="8.089"/>
</svg>
