<?xml version="1.0" encoding="UTF-8" standalone="no"?>
<!-- Created with Inkscape (http://www.inkscape.org/) -->

<svg
   xmlns:dc="http://purl.org/dc/elements/1.1/"
   xmlns:cc="http://creativecommons.org/ns#"
   xmlns:rdf="http://www.w3.org/1999/02/22-rdf-syntax-ns#"
   xmlns:svg="http://www.w3.org/2000/svg"
   xmlns="http://www.w3.org/2000/svg"
   version="1.1"
   width="646.84253"
   height="953.98627"
   id="svg2"
   xml:space="preserve"><metadata
     id="metadata8"><rdf:RDF><cc:Work
         rdf:about=""><dc:format>image/svg+xml</dc:format><dc:type
           rdf:resource="http://purl.org/dc/dcmitype/StillImage" /><dc:title></dc:title></cc:Work></rdf:RDF></metadata><defs
     id="defs6"><clipPath
       id="clipPath16"><path
         d="m 0,763.189 517.474,0 L 517.474,0 0,0 0,763.189 z"
         id="path18" /></clipPath><clipPath
       id="clipPath536"><path
         d="m 0,763.189 517.474,0 L 517.474,0 0,0 0,763.189 z"
         id="path538" /></clipPath></defs><g
     transform="matrix(1.25,0,0,-1.25,0,953.98625)"
     id="g10"><g
       id="g12"><g
         clip-path="url(#clipPath16)"
         id="g14"><g
           transform="translate(126.1987,30.4746)"
           id="g20"><path
             d="M 0,0 C -27.617,-13.1 -54.617,-27.1 -81.764,-39.684"
             id="path22"
             style="fill:#e7e7e7;fill-opacity:1;fill-rule:nonzero;stroke:#e5e4e4;stroke-width:2;stroke-linecap:butt;stroke-linejoin:miter;stroke-miterlimit:10;stroke-opacity:1;stroke-dasharray:none" /></g><g
           transform="translate(126.1987,30.4746)"
           id="g24"><path
             d="M 0,0 C -26.617,-13.1 -52.617,-28.1 -80.018,-41.504"
             id="path26"
             style="fill:#e7e7e7;fill-opacity:1;fill-rule:nonzero;stroke:#e5e4e4;stroke-width:2;stroke-linecap:butt;stroke-linejoin:miter;stroke-miterlimit:10;stroke-opacity:1;stroke-dasharray:none" /></g><g
           transform="translate(337.3607,52.2187)"
           id="g28"><path
             d="m 0,0 c 26.221,-12.844 52.221,-25.844 78.221,-38.844 18,-10 36,-17 53.493,-27.607"
             id="path30"
             style="fill:#e7e7e7;fill-opacity:1;fill-rule:nonzero;stroke:#e5e4e4;stroke-width:2;stroke-linecap:butt;stroke-linejoin:miter;stroke-miterlimit:10;stroke-opacity:1;stroke-dasharray:none" /></g><g
           transform="translate(288.4732,187.2695)"
           id="g32"><path
             d="M 0,0 C 2.092,3.83 7.34,7.918 11.702,9.73"
             id="path34"
             style="fill:#e7e7e7;fill-opacity:1;fill-rule:nonzero;stroke:#e5e4e4;stroke-width:4;stroke-linecap:butt;stroke-linejoin:miter;stroke-miterlimit:10;stroke-opacity:1;stroke-dasharray:none" /></g><g
           transform="translate(285.5816,175.375)"
           id="g36"><path
             d="M 0,0 C -0.375,4.562 1.289,8.969 3.032,12.16"
             id="path38"
             style="fill:#e7e7e7;fill-opacity:1;fill-rule:nonzero;stroke:#e5e4e4;stroke-width:4;stroke-linecap:butt;stroke-linejoin:miter;stroke-miterlimit:10;stroke-opacity:1;stroke-dasharray:none" /></g><g
           transform="translate(255.4712,646.1469)"
           id="g40"><path
             d="M 0,0 0,-647.909"
             id="path42"
             style="fill:#e7e7e7;fill-opacity:1;fill-rule:nonzero;stroke:#e5e4e4;stroke-width:11;stroke-linecap:butt;stroke-linejoin:miter;stroke-miterlimit:10;stroke-opacity:1;stroke-dasharray:none" /></g><g
           transform="translate(102.2886,425.8745)"
           id="g44"><path
             d="M 0,0 0,-131.062"
             id="path46"
             style="fill:#e7e7e7;fill-opacity:1;fill-rule:nonzero;stroke:#e5e4e4;stroke-width:11;stroke-linecap:butt;stroke-linejoin:miter;stroke-miterlimit:10;stroke-opacity:1;stroke-dasharray:none" /></g><g
           transform="translate(450.4487,386.7495)"
           id="g48"><path
             d="M 0,0 0,-29.875"
             id="path50"
             style="fill:#e7e7e7;fill-opacity:1;fill-rule:nonzero;stroke:#e5e4e4;stroke-width:10;stroke-linecap:butt;stroke-linejoin:miter;stroke-miterlimit:10;stroke-opacity:1;stroke-dasharray:none" /></g><g
           transform="translate(151.4712,613.0795)"
           id="g52"><path
             d="M 0,0 0,-70.523"
             id="path54"
             style="fill:#e7e7e7;fill-opacity:1;fill-rule:nonzero;stroke:#e5e4e4;stroke-width:7;stroke-linecap:butt;stroke-linejoin:miter;stroke-miterlimit:10;stroke-opacity:1;stroke-dasharray:none" /></g><g
           transform="translate(239.3462,470.2085)"
           id="g56"><path
             d="M 0,0 -0.058,-375.083"
             id="path58"
             style="fill:#e7e7e7;fill-opacity:1;fill-rule:nonzero;stroke:#e5e4e4;stroke-width:7;stroke-linecap:butt;stroke-linejoin:miter;stroke-miterlimit:10;stroke-opacity:1;stroke-dasharray:none" /></g><g
           transform="translate(270.0386,385.1928)"
           id="g60"><path
             d="M 0,0 0,-295.568"
             id="path62"
             style="fill:#e7e7e7;fill-opacity:1;fill-rule:nonzero;stroke:#e5e4e4;stroke-width:7;stroke-linecap:butt;stroke-linejoin:miter;stroke-miterlimit:10;stroke-opacity:1;stroke-dasharray:none" /></g><g
           transform="translate(438.481,337.9824)"
           id="g64"><path
             d="M 0,0 -182.01,-105.221"
             id="path66"
             style="fill:#e7e7e7;fill-opacity:1;fill-rule:nonzero;stroke:#e5e4e4;stroke-width:10;stroke-linecap:butt;stroke-linejoin:miter;stroke-miterlimit:10;stroke-opacity:1;stroke-dasharray:none" /></g><g
           transform="translate(119.3941,267.8554)"
           id="g68"><path
             d="M 0,0 137.077,-79.844"
             id="path70"
             style="fill:#e7e7e7;fill-opacity:1;fill-rule:nonzero;stroke:#e5e4e4;stroke-width:11;stroke-linecap:butt;stroke-linejoin:miter;stroke-miterlimit:10;stroke-opacity:1;stroke-dasharray:none" /></g><g
           transform="translate(368.9712,627.9204)"
           id="g72"><path
             d="M 0,0 0,-376.967"
             id="path74"
             style="fill:#e7e7e7;fill-opacity:1;fill-rule:nonzero;stroke:#e5e4e4;stroke-width:4;stroke-linecap:butt;stroke-linejoin:miter;stroke-miterlimit:10;stroke-opacity:1;stroke-dasharray:none" /></g><g
           transform="translate(427.8452,532.3745)"
           id="g76"><path
             d="M 0,0 0,-226.281"
             id="path78"
             style="fill:#e7e7e7;fill-opacity:1;fill-rule:nonzero;stroke:#e5e4e4;stroke-width:3;stroke-linecap:butt;stroke-linejoin:miter;stroke-miterlimit:10;stroke-opacity:1;stroke-dasharray:none" /></g><g
           transform="translate(66.2437,542.5561)"
           id="g80"><path
             d="M 0,0 0,-149.704"
             id="path82"
             style="fill:#e7e7e7;fill-opacity:1;fill-rule:nonzero;stroke:#e5e4e4;stroke-width:2;stroke-linecap:butt;stroke-linejoin:miter;stroke-miterlimit:10;stroke-opacity:1;stroke-dasharray:none" /></g><g
           transform="translate(201.0269,542.5561)"
           id="g84"><path
             d="M 0,0 -0.533,-56.408"
             id="path86"
             style="fill:#e7e7e7;fill-opacity:1;fill-rule:nonzero;stroke:#e5e4e4;stroke-width:2;stroke-linecap:butt;stroke-linejoin:miter;stroke-miterlimit:10;stroke-opacity:1;stroke-dasharray:none" /></g><g
           transform="translate(301.2661,573.8295)"
           id="g88"><path
             d="M 0,0 0,-461.955"
             id="path90"
             style="fill:#e7e7e7;fill-opacity:1;fill-rule:nonzero;stroke:#e5e4e4;stroke-width:2;stroke-linecap:butt;stroke-linejoin:miter;stroke-miterlimit:10;stroke-opacity:1;stroke-dasharray:none" /></g><g
           transform="translate(348.6304,327.1269)"
           id="g92"><path
             d="M 0,0 0.92,-67.752"
             id="path94"
             style="fill:#e7e7e7;fill-opacity:1;fill-rule:nonzero;stroke:#e5e4e4;stroke-width:2;stroke-linecap:butt;stroke-linejoin:miter;stroke-miterlimit:10;stroke-opacity:1;stroke-dasharray:none" /></g><g
           transform="translate(292.6753,434.2612)"
           id="g96"><path
             d="M 0,0 0,-112.068"
             id="path98"
             style="fill:#e7e7e7;fill-opacity:1;fill-rule:nonzero;stroke:#e5e4e4;stroke-width:2;stroke-linecap:butt;stroke-linejoin:miter;stroke-miterlimit:10;stroke-opacity:1;stroke-dasharray:none" /></g><g
           transform="translate(57.5816,322.1933)"
           id="g100"><path
             d="M 0,0 44.707,-27.773"
             id="path102"
             style="fill:#e7e7e7;fill-opacity:1;fill-rule:nonzero;stroke:#e5e4e4;stroke-width:2;stroke-linecap:butt;stroke-linejoin:miter;stroke-miterlimit:10;stroke-opacity:1;stroke-dasharray:none" /></g><g
           transform="translate(173.1509,344.4375)"
           id="g104"><path
             d="M 0,0 0,-52.5"
             id="path106"
             style="fill:#e7e7e7;fill-opacity:1;fill-rule:nonzero;stroke:#e5e4e4;stroke-width:4;stroke-linecap:butt;stroke-linejoin:miter;stroke-miterlimit:10;stroke-opacity:1;stroke-dasharray:none" /></g><g
           transform="translate(223.5816,238.041)"
           id="g108"><path
             d="M 0,0 0,-139.529"
             id="path110"
             style="fill:#e7e7e7;fill-opacity:1;fill-rule:nonzero;stroke:#e5e4e4;stroke-width:4;stroke-linecap:butt;stroke-linejoin:miter;stroke-miterlimit:10;stroke-opacity:1;stroke-dasharray:none" /></g><g
           transform="translate(369.9712,259.7382)"
           id="g112"><path
             d="M 0,0 46.44,26.264"
             id="path114"
             style="fill:#e7e7e7;fill-opacity:1;fill-rule:nonzero;stroke:#e5e4e4;stroke-width:3;stroke-linecap:butt;stroke-linejoin:miter;stroke-miterlimit:10;stroke-opacity:1;stroke-dasharray:none" /></g><g
           transform="translate(357.9937,231.7617)"
           id="g116"><path
             d="M 0,0 -58.861,-35.389"
             id="path118"
             style="fill:#e7e7e7;fill-opacity:1;fill-rule:nonzero;stroke:#e5e4e4;stroke-width:4;stroke-linecap:butt;stroke-linejoin:miter;stroke-miterlimit:10;stroke-opacity:1;stroke-dasharray:none" /></g><g
           transform="translate(208.7066,287.25)"
           id="g120"><path
             d="M 0,0 0.275,-170.062"
             id="path122"
             style="fill:#e7e7e7;fill-opacity:1;fill-rule:nonzero;stroke:#e5e4e4;stroke-width:2;stroke-linecap:butt;stroke-linejoin:miter;stroke-miterlimit:10;stroke-opacity:1;stroke-dasharray:none" /></g><g
           transform="translate(274.3911,-6.8145)"
           id="g124"><path
             d="M 0,0 -37.841,0.17 -18.588,73.908 0,0 z"
             id="path126"
             style="fill:#e7e7e7;fill-opacity:1;fill-rule:nonzero;stroke:none" /></g><g
           transform="translate(274.3911,-6.8145)"
           id="g128"><path
             d="M 0,0 -37.841,0.17 -18.588,73.908 0,0 z"
             id="path130"
             style="fill:none;stroke:#e5e4e4;stroke-width:1;stroke-linecap:butt;stroke-linejoin:miter;stroke-miterlimit:10;stroke-opacity:1;stroke-dasharray:none" /></g><g
           transform="translate(231.7798,482.3833)"
           id="g132"><path
             d="M 0,0 -73.534,43.667"
             id="path134"
             style="fill:#e7e7e7;fill-opacity:1;fill-rule:nonzero;stroke:#e5e4e4;stroke-width:7;stroke-linecap:butt;stroke-linejoin:miter;stroke-miterlimit:10;stroke-opacity:1;stroke-dasharray:none" /></g><g
           transform="translate(151.5796,542.8745)"
           id="g136"><path
             d="m 0,0 c 0,-3.79 -0.012,-6.586 1.459,-10 1.197,-2.781 2.992,-6.066 6.207,-7"
             id="path138"
             style="fill:#e7e7e7;fill-opacity:1;fill-rule:nonzero;stroke:#e5e4e4;stroke-width:7;stroke-linecap:butt;stroke-linejoin:miter;stroke-miterlimit:10;stroke-opacity:1;stroke-dasharray:none" /></g><g
           transform="translate(239.3462,468.7495)"
           id="g140"><path
             d="M 0,0 C -0.058,6.312 -4.865,12.5 -9.439,14.746"
             id="path142"
             style="fill:#e7e7e7;fill-opacity:1;fill-rule:nonzero;stroke:#e5e4e4;stroke-width:7;stroke-linecap:butt;stroke-linejoin:miter;stroke-miterlimit:10;stroke-opacity:1;stroke-dasharray:none" /></g><g
           transform="translate(250.9146,444.3754)"
           id="g144"><path
             d="M 0,0 -42.999,25.833"
             id="path146"
             style="fill:#e7e7e7;fill-opacity:1;fill-rule:nonzero;stroke:#e5e4e4;stroke-width:2;stroke-linecap:butt;stroke-linejoin:miter;stroke-miterlimit:10;stroke-opacity:1;stroke-dasharray:none" /></g><g
           transform="translate(185.2896,270.6328)"
           id="g148"><path
             d="M 0,0 31.128,-19.68"
             id="path150"
             style="fill:#e7e7e7;fill-opacity:1;fill-rule:nonzero;stroke:#e5e4e4;stroke-width:4;stroke-linecap:butt;stroke-linejoin:miter;stroke-miterlimit:10;stroke-opacity:1;stroke-dasharray:none" /></g><g
           transform="translate(222.1987,244.5898)"
           id="g152"><path
             d="M 0,0 C 1.148,-2.326 1.383,-4.873 1.383,-7.512"
             id="path154"
             style="fill:#e7e7e7;fill-opacity:1;fill-rule:nonzero;stroke:#e5e4e4;stroke-width:4;stroke-linecap:butt;stroke-linejoin:miter;stroke-miterlimit:10;stroke-opacity:1;stroke-dasharray:none" /></g><g
           transform="translate(215.5737,251.4863)"
           id="g156"><path
             d="M 0,0 C 1.272,-0.541 2.484,-2.004 3.384,-2.848 4.446,-3.844 5.502,-4.926 6.258,-6.215 6.39,-6.439 6.787,-7.277 6.9,-7.506"
             id="path158"
             style="fill:#e7e7e7;fill-opacity:1;fill-rule:nonzero;stroke:#e5e4e4;stroke-width:4;stroke-linecap:butt;stroke-linejoin:miter;stroke-miterlimit:10;stroke-opacity:1;stroke-dasharray:none" /></g><g
           transform="translate(186.853,64.4375)"
           id="g160"><path
             d="M 0,0 C -4.889,-4.809 -10.481,-8.949 -16.674,-12.219"
             id="path162"
             style="fill:#e7e7e7;fill-opacity:1;fill-rule:nonzero;stroke:#e5e4e4;stroke-width:2;stroke-linecap:butt;stroke-linejoin:miter;stroke-miterlimit:10;stroke-opacity:1;stroke-dasharray:none" /></g><g
           transform="translate(198.2007,78.8125)"
           id="g164"><path
             d="M 0,0 C -3.167,-5.23 -6.975,-10.07 -11.348,-14.375"
             id="path166"
             style="fill:#e7e7e7;fill-opacity:1;fill-rule:nonzero;stroke:#e5e4e4;stroke-width:2;stroke-linecap:butt;stroke-linejoin:miter;stroke-miterlimit:10;stroke-opacity:1;stroke-dasharray:none" /></g><g
           transform="translate(206.354,97.7675)"
           id="g168"><path
             d="M 0,0 C -1.831,-6.676 -4.585,-13.064 -8.153,-18.955"
             id="path170"
             style="fill:#e7e7e7;fill-opacity:1;fill-rule:nonzero;stroke:#e5e4e4;stroke-width:2;stroke-linecap:butt;stroke-linejoin:miter;stroke-miterlimit:10;stroke-opacity:1;stroke-dasharray:none" /></g><g
           transform="translate(208.9819,117.1875)"
           id="g172"><path
             d="M 0,0 C 0,-6.613 -0.906,-13.145 -2.628,-19.42"
             id="path174"
             style="fill:#e7e7e7;fill-opacity:1;fill-rule:nonzero;stroke:#e5e4e4;stroke-width:2;stroke-linecap:butt;stroke-linejoin:miter;stroke-miterlimit:10;stroke-opacity:1;stroke-dasharray:none" /></g><g
           transform="translate(170.1792,52.2187)"
           id="g176"><path
             d="M 0,0 C -41.598,-19.844 -82.598,-40.844 -125.07,-61.838"
             id="path178"
             style="fill:#e7e7e7;fill-opacity:1;fill-rule:nonzero;stroke:#e5e4e4;stroke-width:2;stroke-linecap:butt;stroke-linejoin:miter;stroke-miterlimit:10;stroke-opacity:1;stroke-dasharray:none" /></g><g
           transform="translate(217.9312,75.6933)"
           id="g180"><path
             d="M 0,0 C -3.051,-6.109 -7.747,-13.443 -12.672,-17.365"
             id="path182"
             style="fill:#e7e7e7;fill-opacity:1;fill-rule:nonzero;stroke:#e5e4e4;stroke-width:4;stroke-linecap:butt;stroke-linejoin:miter;stroke-miterlimit:10;stroke-opacity:1;stroke-dasharray:none" /></g><g
           transform="translate(223.5816,98.5117)"
           id="g184"><path
             d="M 0,0 C 0,-8.078 -2.126,-15.762 -5.65,-22.818"
             id="path186"
             style="fill:#e7e7e7;fill-opacity:1;fill-rule:nonzero;stroke:#e5e4e4;stroke-width:4;stroke-linecap:butt;stroke-linejoin:miter;stroke-miterlimit:10;stroke-opacity:1;stroke-dasharray:none" /></g><g
           transform="translate(113.9038,-9.9454)"
           id="g188"><path
             d="M 0,0 C 0.006,-0.012 0.013,-0.023 0.019,-0.037 L 50.762,37.896 C 33.716,25.375 16.562,12.818 0,0"
             id="path190"
             style="fill:#e7e7e7;fill-opacity:1;fill-rule:nonzero;stroke:none" /></g><g
           transform="translate(113.9038,-9.9454)"
           id="g192"><path
             d="M 0,0 C 0.006,-0.012 0.013,-0.023 0.019,-0.037 L 50.762,37.896 C 33.716,25.375 16.562,12.818 0,0 z"
             id="path194"
             style="fill:none;stroke:#e5e4e4;stroke-width:4;stroke-linecap:butt;stroke-linejoin:miter;stroke-miterlimit:10;stroke-opacity:1;stroke-dasharray:none" /></g><g
           transform="translate(157.2232,24.2851)"
           id="g196"><path
             d="M 0,0 C 16.453,11.357 32.86,22.672 48.888,34.646 L 0,0 z"
             id="path198"
             style="fill:#e7e7e7;fill-opacity:1;fill-rule:nonzero;stroke:none" /></g><g
           transform="translate(157.2232,24.2851)"
           id="g200"><path
             d="M 0,0 C 16.453,11.357 32.86,22.672 48.888,34.646 L 0,0 z"
             id="path202"
             style="fill:none;stroke:#e5e4e4;stroke-width:4;stroke-linecap:butt;stroke-linejoin:miter;stroke-miterlimit:10;stroke-opacity:1;stroke-dasharray:none" /></g><g
           transform="translate(111.8521,-7.8047)"
           id="g204"><path
             d="M 0,0 C 0.018,-0.008 0.034,-0.018 0.052,-0.027 L 45.371,32.09 C 30.198,21.617 14.989,11.1 0,0"
             id="path206"
             style="fill:#e7e7e7;fill-opacity:1;fill-rule:nonzero;stroke:none" /></g><g
           transform="translate(111.8521,-7.8047)"
           id="g208"><path
             d="M 0,0 C 0.018,-0.008 0.034,-0.018 0.052,-0.027 L 45.371,32.09 C 30.198,21.617 14.989,11.1 0,0 z"
             id="path210"
             style="fill:none;stroke:#e5e4e4;stroke-width:4;stroke-linecap:butt;stroke-linejoin:miter;stroke-miterlimit:10;stroke-opacity:1;stroke-dasharray:none" /></g><g
           transform="translate(206.1108,58.9316)"
           id="g212"><path
             d="m 0,0 -83.702,-66.473 c 2.944,2.313 5.951,4.616 9.173,6.916 25,21 51,39 74.529,59.557"
             id="path214"
             style="fill:#e7e7e7;fill-opacity:1;fill-rule:nonzero;stroke:none" /></g><g
           transform="translate(206.1108,58.9316)"
           id="g216"><path
             d="m 0,0 -83.702,-66.473 c 2.944,2.313 5.951,4.616 9.173,6.916 25,21 51,39 74.529,59.557 z"
             id="path218"
             style="fill:none;stroke:#e5e4e4;stroke-width:4;stroke-linecap:butt;stroke-linejoin:miter;stroke-miterlimit:10;stroke-opacity:1;stroke-dasharray:none" /></g><g
           transform="translate(239.2886,98.5117)"
           id="g220"><path
             d="M 0,0 C 0,-8.512 0,-20.66 -4.497,-28.369"
             id="path222"
             style="fill:#e7e7e7;fill-opacity:1;fill-rule:nonzero;stroke:#e5e4e4;stroke-width:7;stroke-linecap:butt;stroke-linejoin:miter;stroke-miterlimit:10;stroke-opacity:1;stroke-dasharray:none" /></g><g
           transform="translate(235.2378,71.0859)"
           id="g224"><path
             d="M 0,0 -64.059,-84.461"
             id="path226"
             style="fill:#e7e7e7;fill-opacity:1;fill-rule:nonzero;stroke:#e5e4e4;stroke-width:7;stroke-linecap:butt;stroke-linejoin:miter;stroke-miterlimit:10;stroke-opacity:1;stroke-dasharray:none" /></g><g
           transform="translate(234.7915,70.1425)"
           id="g228"><path
             d="M 0,0 -40.21,-84.018"
             id="path230"
             style="fill:#e7e7e7;fill-opacity:1;fill-rule:nonzero;stroke:#e5e4e4;stroke-width:7;stroke-linecap:butt;stroke-linejoin:miter;stroke-miterlimit:10;stroke-opacity:1;stroke-dasharray:none" /></g><g
           transform="translate(236.5112,73.1738)"
           id="g232"><path
             d="M 0,0 -52.654,-86.295"
             id="path234"
             style="fill:#e7e7e7;fill-opacity:1;fill-rule:nonzero;stroke:#e5e4e4;stroke-width:7;stroke-linecap:butt;stroke-linejoin:miter;stroke-miterlimit:10;stroke-opacity:1;stroke-dasharray:none" /></g><g
           transform="translate(200.7222,25.2089)"
           id="g236"><path
             d="M 0,0 -23.391,-38.584"
             id="path238"
             style="fill:#e7e7e7;fill-opacity:1;fill-rule:nonzero;stroke:#e5e4e4;stroke-width:7;stroke-linecap:butt;stroke-linejoin:miter;stroke-miterlimit:10;stroke-opacity:1;stroke-dasharray:none" /></g><g
           transform="translate(206.1108,15.875)"
           id="g240"><path
             d="M 0,0 -18.529,-31.75"
             id="path242"
             style="fill:#e7e7e7;fill-opacity:1;fill-rule:nonzero;stroke:#e5e4e4;stroke-width:7;stroke-linecap:butt;stroke-linejoin:miter;stroke-miterlimit:10;stroke-opacity:1;stroke-dasharray:none" /></g><g
           transform="translate(270.0386,91.041)"
           id="g244"><path
             d="M 0,0 C -0.02,-9.625 0.918,-18.521 4.885,-26.377"
             id="path246"
             style="fill:#e7e7e7;fill-opacity:1;fill-rule:nonzero;stroke:#e5e4e4;stroke-width:7;stroke-linecap:butt;stroke-linejoin:miter;stroke-miterlimit:10;stroke-opacity:1;stroke-dasharray:none" /></g><g
           transform="translate(273.9232,66.6445)"
           id="g248"><path
             d="M 0,0 39.908,-79.02"
             id="path250"
             style="fill:#e7e7e7;fill-opacity:1;fill-rule:nonzero;stroke:#e5e4e4;stroke-width:7;stroke-linecap:butt;stroke-linejoin:miter;stroke-miterlimit:10;stroke-opacity:1;stroke-dasharray:none" /></g><g
           transform="translate(273.9232,66.6445)"
           id="g252"><path
             d="M 0,0 C 9.148,-11.117 18.296,-22.232 27.443,-33.35 38.979,-47.365 50.515,-61.383 62.05,-75.4"
             id="path254"
             style="fill:#e7e7e7;fill-opacity:1;fill-rule:nonzero;stroke:#e5e4e4;stroke-width:7;stroke-linecap:butt;stroke-linejoin:miter;stroke-miterlimit:10;stroke-opacity:1;stroke-dasharray:none" /></g><g
           transform="translate(287.5386,46.125)"
           id="g256"><path
             d="m 0,0 c 9.75,-13.461 19.501,-26.92 29.251,-40.379 4.202,-5.803 8.405,-11.603 12.607,-17.404"
             id="path258"
             style="fill:#e7e7e7;fill-opacity:1;fill-rule:nonzero;stroke:#e5e4e4;stroke-width:7;stroke-linecap:butt;stroke-linejoin:miter;stroke-miterlimit:10;stroke-opacity:1;stroke-dasharray:none" /></g><g
           transform="translate(296.3316,29.2714)"
           id="g260"><path
             d="M 0,0 C 8.284,-13.658 16.569,-27.314 24.853,-40.973"
             id="path262"
             style="fill:#e7e7e7;fill-opacity:1;fill-rule:nonzero;stroke:#e5e4e4;stroke-width:7;stroke-linecap:butt;stroke-linejoin:miter;stroke-miterlimit:10;stroke-opacity:1;stroke-dasharray:none" /></g><g
           transform="translate(285.5816,178.375)"
           id="g264"><path
             d="M 0,0 0,-77.5"
             id="path266"
             style="fill:#e7e7e7;fill-opacity:1;fill-rule:nonzero;stroke:#e5e4e4;stroke-width:4;stroke-linecap:butt;stroke-linejoin:miter;stroke-miterlimit:10;stroke-opacity:1;stroke-dasharray:none" /></g><g
           transform="translate(289.9575,80.5527)"
           id="g268"><path
             d="M 0,0 C 2.969,-6.961 8.624,-15.889 14.306,-20.82"
             id="path270"
             style="fill:#e7e7e7;fill-opacity:1;fill-rule:nonzero;stroke:#e5e4e4;stroke-width:4;stroke-linecap:butt;stroke-linejoin:miter;stroke-miterlimit:10;stroke-opacity:1;stroke-dasharray:none" /></g><g
           transform="translate(285.5816,102.125)"
           id="g272"><path
             d="M 0,0 C 0,-7.709 1.654,-15.207 4.623,-22.168"
             id="path274"
             style="fill:#e7e7e7;fill-opacity:1;fill-rule:nonzero;stroke:#e5e4e4;stroke-width:4;stroke-linecap:butt;stroke-linejoin:miter;stroke-miterlimit:10;stroke-opacity:1;stroke-dasharray:none" /></g><g
           transform="translate(302.7075,61.0175)"
           id="g276"><path
             d="M 0,0 90.624,-74.893"
             id="path278"
             style="fill:#e7e7e7;fill-opacity:1;fill-rule:nonzero;stroke:#e5e4e4;stroke-width:4;stroke-linecap:butt;stroke-linejoin:miter;stroke-miterlimit:10;stroke-opacity:1;stroke-dasharray:none" /></g><g
           transform="translate(302.7075,61.0175)"
           id="g280"><path
             d="M 0,0 C 31.874,-23.643 63.874,-47.643 95.938,-70.752"
             id="path282"
             style="fill:#e7e7e7;fill-opacity:1;fill-rule:nonzero;stroke:#e5e4e4;stroke-width:4;stroke-linecap:butt;stroke-linejoin:miter;stroke-miterlimit:10;stroke-opacity:1;stroke-dasharray:none" /></g><g
           transform="translate(348.0191,25.2089)"
           id="g284"><path
             d="M 0,0 C 16.562,-12.834 33.563,-24.834 49.888,-37.971"
             id="path286"
             style="fill:#e7e7e7;fill-opacity:1;fill-rule:nonzero;stroke:#e5e4e4;stroke-width:4;stroke-linecap:butt;stroke-linejoin:miter;stroke-miterlimit:10;stroke-opacity:1;stroke-dasharray:none" /></g><g
           transform="translate(322.4976,63.6113)"
           id="g288"><path
             d="M 0,0 C 4.982,-4.871 10.652,-9.092 16.8,-12.506"
             id="path290"
             style="fill:#e7e7e7;fill-opacity:1;fill-rule:nonzero;stroke:#e5e4e4;stroke-width:2;stroke-linecap:butt;stroke-linejoin:miter;stroke-miterlimit:10;stroke-opacity:1;stroke-dasharray:none" /></g><g
           transform="translate(310.6665,78.5605)"
           id="g292"><path
             d="M 0,0 C 3.255,-5.449 7.252,-10.473 11.831,-14.949"
             id="path294"
             style="fill:#e7e7e7;fill-opacity:1;fill-rule:nonzero;stroke:#e5e4e4;stroke-width:2;stroke-linecap:butt;stroke-linejoin:miter;stroke-miterlimit:10;stroke-opacity:1;stroke-dasharray:none" /></g><g
           transform="translate(304.2632,92.7109)"
           id="g296"><path
             d="M 0,0 C 1.578,-4.955 3.742,-9.695 6.403,-14.15"
             id="path298"
             style="fill:#e7e7e7;fill-opacity:1;fill-rule:nonzero;stroke:#e5e4e4;stroke-width:2;stroke-linecap:butt;stroke-linejoin:miter;stroke-miterlimit:10;stroke-opacity:1;stroke-dasharray:none" /></g><g
           transform="translate(301.2661,111.875)"
           id="g300"><path
             d="M 0,0 C 0,-6.633 1.055,-13.063 2.997,-19.164"
             id="path302"
             style="fill:#e7e7e7;fill-opacity:1;fill-rule:nonzero;stroke:#e5e4e4;stroke-width:2;stroke-linecap:butt;stroke-linejoin:miter;stroke-miterlimit:10;stroke-opacity:1;stroke-dasharray:none" /></g><g
           transform="translate(337.3607,52.2187)"
           id="g304"><path
             d="M 0,0 C 44.221,-21.844 88.221,-41.844 132.367,-63.789"
             id="path306"
             style="fill:#e7e7e7;fill-opacity:1;fill-rule:nonzero;stroke:#e5e4e4;stroke-width:2;stroke-linecap:butt;stroke-linejoin:miter;stroke-miterlimit:10;stroke-opacity:1;stroke-dasharray:none" /></g><g
           transform="translate(407.5816,18.3789)"
           id="g308"><path
             d="M 0,0 C 20,-10.004 40,-21.004 61.447,-31.184"
             id="path310"
             style="fill:#e7e7e7;fill-opacity:1;fill-rule:nonzero;stroke:#e5e4e4;stroke-width:2;stroke-linecap:butt;stroke-linejoin:miter;stroke-miterlimit:10;stroke-opacity:1;stroke-dasharray:none" /></g><g
           transform="translate(366.2603,242.4121)"
           id="g312"><path
             d="M 0,0 C -2.054,-4.271 -4.429,-8.35 -9.549,-11.422"
             id="path314"
             style="fill:#e7e7e7;fill-opacity:1;fill-rule:nonzero;stroke:#e5e4e4;stroke-width:4;stroke-linecap:butt;stroke-linejoin:miter;stroke-miterlimit:10;stroke-opacity:1;stroke-dasharray:none" /></g><g
           transform="translate(368.9712,251.9902)"
           id="g316"><path
             d="M 0,0 C 0.001,-3.402 -1.119,-6.807 -2.915,-9.994"
             id="path318"
             style="fill:#e7e7e7;fill-opacity:1;fill-rule:nonzero;stroke:#e5e4e4;stroke-width:4;stroke-linecap:butt;stroke-linejoin:miter;stroke-miterlimit:10;stroke-opacity:1;stroke-dasharray:none" /></g><g
           transform="translate(450.4487,358)"
           id="g320"><path
             d="M 0,0 C -0.876,-10.957 -7.072,-18.041 -17.237,-23.065"
             id="path322"
             style="fill:#e7e7e7;fill-opacity:1;fill-rule:nonzero;stroke:#e5e4e4;stroke-width:10;stroke-linecap:butt;stroke-linejoin:miter;stroke-miterlimit:10;stroke-opacity:1;stroke-dasharray:none" /></g><g
           transform="translate(424.2437,294.1894)"
           id="g324"><path
             d="M 0,0 C -2.086,-3.728 -5.082,-6.881 -8.998,-8.814"
             id="path326"
             style="fill:#e7e7e7;fill-opacity:1;fill-rule:nonzero;stroke:#e5e4e4;stroke-width:3;stroke-linecap:butt;stroke-linejoin:miter;stroke-miterlimit:10;stroke-opacity:1;stroke-dasharray:none" /></g><g
           transform="translate(427.8452,307)"
           id="g328"><path
             d="M 0,0 C 0,-5.187 -1.261,-8.629 -3.667,-12.926"
             id="path330"
             style="fill:#e7e7e7;fill-opacity:1;fill-rule:nonzero;stroke:#e5e4e4;stroke-width:3;stroke-linecap:butt;stroke-linejoin:miter;stroke-miterlimit:10;stroke-opacity:1;stroke-dasharray:none" /></g><g
           transform="translate(345.3091,245.6308)"
           id="g332"><path
             d="M 0,0 C -1.232,-2.354 -2.782,-4.436 -4.877,-5.635"
             id="path334"
             style="fill:#e7e7e7;fill-opacity:1;fill-rule:nonzero;stroke:#e5e4e4;stroke-width:2;stroke-linecap:butt;stroke-linejoin:miter;stroke-miterlimit:10;stroke-opacity:1;stroke-dasharray:none" /></g><g
           transform="translate(347.4263,250.5312)"
           id="g336"><path
             d="M 0,0 C -0.609,-1.631 -1.292,-3.326 -2.117,-4.9"
             id="path338"
             style="fill:#e7e7e7;fill-opacity:1;fill-rule:nonzero;stroke:#e5e4e4;stroke-width:2;stroke-linecap:butt;stroke-linejoin:miter;stroke-miterlimit:10;stroke-opacity:1;stroke-dasharray:none" /></g><g
           transform="translate(349.5415,260.039)"
           id="g340"><path
             d="M 0,0 C 0.248,-3.408 -1.095,-6.818 -2.24,-9.842"
             id="path342"
             style="fill:#e7e7e7;fill-opacity:1;fill-rule:nonzero;stroke:#e5e4e4;stroke-width:2;stroke-linecap:butt;stroke-linejoin:miter;stroke-miterlimit:10;stroke-opacity:1;stroke-dasharray:none" /></g><g
           transform="translate(340.5698,240.08)"
           id="g344"><path
             d="M 0,0 -39.304,-23.955"
             id="path346"
             style="fill:#e7e7e7;fill-opacity:1;fill-rule:nonzero;stroke:#e5e4e4;stroke-width:2;stroke-linecap:butt;stroke-linejoin:miter;stroke-miterlimit:10;stroke-opacity:1;stroke-dasharray:none" /></g><g
           transform="translate(289.9331,314.0566)"
           id="g348"><path
             d="M 0,0 C -1.459,-3.279 -3.453,-6.332 -5.866,-9.033"
             id="path350"
             style="fill:#e7e7e7;fill-opacity:1;fill-rule:nonzero;stroke:#e5e4e4;stroke-width:2;stroke-linecap:butt;stroke-linejoin:miter;stroke-miterlimit:10;stroke-opacity:1;stroke-dasharray:none" /></g><g
           transform="translate(292.6753,326.6933)"
           id="g352"><path
             d="M 0,0 C 0,-4.398 -0.982,-8.684 -2.742,-12.637"
             id="path354"
             style="fill:#e7e7e7;fill-opacity:1;fill-rule:nonzero;stroke:#e5e4e4;stroke-width:2;stroke-linecap:butt;stroke-linejoin:miter;stroke-miterlimit:10;stroke-opacity:1;stroke-dasharray:none" /></g><g
           transform="translate(284.9351,306.0371)"
           id="g356"><path
             d="M 0,0 -25.603,-15.912"
             id="path358"
             style="fill:#e7e7e7;fill-opacity:1;fill-rule:nonzero;stroke:#e5e4e4;stroke-width:2;stroke-linecap:butt;stroke-linejoin:miter;stroke-miterlimit:10;stroke-opacity:1;stroke-dasharray:none" /></g><g
           transform="translate(86.4566,363.4375)"
           id="g360"><path
             d="M 0,0 86.694,-50.063"
             id="path362"
             style="fill:#e7e7e7;fill-opacity:1;fill-rule:nonzero;stroke:#e5e4e4;stroke-width:2;stroke-linecap:butt;stroke-linejoin:miter;stroke-miterlimit:10;stroke-opacity:1;stroke-dasharray:none" /></g><g
           transform="translate(176.1665,279.6914)"
           id="g364"><path
             d="M 0,0 C 2.062,-4.19 5.814,-7.207 9.991,-9.608"
             id="path366"
             style="fill:#e7e7e7;fill-opacity:1;fill-rule:nonzero;stroke:#e5e4e4;stroke-width:4;stroke-linecap:butt;stroke-linejoin:miter;stroke-miterlimit:10;stroke-opacity:1;stroke-dasharray:none" /></g><g
           transform="translate(173.1509,293.125)"
           id="g368"><path
             d="M 0,0 C -0.001,-4.387 0.954,-9.244 3.016,-13.434"
             id="path370"
             style="fill:#e7e7e7;fill-opacity:1;fill-rule:nonzero;stroke:#e5e4e4;stroke-width:4;stroke-linecap:butt;stroke-linejoin:miter;stroke-miterlimit:10;stroke-opacity:1;stroke-dasharray:none" /></g><g
           transform="translate(102.2886,295.125)"
           id="g372"><path
             d="M 0,0 C 0.293,-15.695 12.094,-24.312 19.469,-28.75"
             id="path374"
             style="fill:#e7e7e7;fill-opacity:1;fill-rule:nonzero;stroke:#e5e4e4;stroke-width:11;stroke-linecap:butt;stroke-linejoin:miter;stroke-miterlimit:10;stroke-opacity:1;stroke-dasharray:none" /></g><g
           transform="translate(51.147,329.0136)"
           id="g376"><path
             d="M 0,0 C 1.786,-3.066 4.327,-5.748 7.703,-7.609"
             id="path378"
             style="fill:#e7e7e7;fill-opacity:1;fill-rule:nonzero;stroke:#e5e4e4;stroke-width:2;stroke-linecap:butt;stroke-linejoin:miter;stroke-miterlimit:10;stroke-opacity:1;stroke-dasharray:none" /></g><g
           transform="translate(47.8316,341.625)"
           id="g380"><path
             d="M 0,0 C 0,-4.223 1.051,-8.725 3.315,-12.611"
             id="path382"
             style="fill:#e7e7e7;fill-opacity:1;fill-rule:nonzero;stroke:#e5e4e4;stroke-width:2;stroke-linecap:butt;stroke-linejoin:miter;stroke-miterlimit:10;stroke-opacity:1;stroke-dasharray:none" /></g><g
           transform="translate(276.7202,400.395)"
           id="g384"><path
             d="M 0,0 C 3.268,4.331 7.51,8.001 12.203,10.787"
             id="path386"
             style="fill:#e7e7e7;fill-opacity:1;fill-rule:nonzero;stroke:#e5e4e4;stroke-width:7;stroke-linecap:butt;stroke-linejoin:miter;stroke-miterlimit:10;stroke-opacity:1;stroke-dasharray:none" /></g><g
           transform="translate(270.0386,381.3745)"
           id="g388"><path
             d="M 0,0 C 0,7.088 2.572,13.576 6.682,19.02"
             id="path390"
             style="fill:#e7e7e7;fill-opacity:1;fill-rule:nonzero;stroke:#e5e4e4;stroke-width:7;stroke-linecap:butt;stroke-linejoin:miter;stroke-miterlimit:10;stroke-opacity:1;stroke-dasharray:none" /></g><g
           transform="translate(286.8394,409.8637)"
           id="g392"><path
             d="M 0,0 41.636,24.397"
             id="path394"
             style="fill:#e7e7e7;fill-opacity:1;fill-rule:nonzero;stroke:#e5e4e4;stroke-width:7;stroke-linecap:butt;stroke-linejoin:miter;stroke-miterlimit:10;stroke-opacity:1;stroke-dasharray:none" /></g><g
           transform="translate(339.0816,454.8745)"
           id="g396"><path
             d="M 0,0 C -0.002,-8.127 -4.437,-16.937 -11.997,-21.428"
             id="path398"
             style="fill:#e7e7e7;fill-opacity:1;fill-rule:nonzero;stroke:#e5e4e4;stroke-width:7;stroke-linecap:butt;stroke-linejoin:miter;stroke-miterlimit:10;stroke-opacity:1;stroke-dasharray:none" /></g><g
           transform="translate(339.0816,454.8745)"
           id="g400"><path
             d="M 0,0 0,37.333"
             id="path402"
             style="fill:#e7e7e7;fill-opacity:1;fill-rule:nonzero;stroke:#e5e4e4;stroke-width:7;stroke-linecap:butt;stroke-linejoin:miter;stroke-miterlimit:10;stroke-opacity:1;stroke-dasharray:none" /></g><g
           transform="translate(202.9653,476.1928)"
           id="g404"><path
             d="M 0,0 C 1.402,-2.754 3.376,-5.125 5.859,-6.53"
             id="path406"
             style="fill:#e7e7e7;fill-opacity:1;fill-rule:nonzero;stroke:#e5e4e4;stroke-width:2;stroke-linecap:butt;stroke-linejoin:miter;stroke-miterlimit:10;stroke-opacity:1;stroke-dasharray:none" /></g><g
           transform="translate(200.5034,487.2085)"
           id="g408"><path
             d="M 0,0 C -0.159,-3.502 0.701,-7.56 2.462,-11.016"
             id="path410"
             style="fill:#e7e7e7;fill-opacity:1;fill-rule:nonzero;stroke:#e5e4e4;stroke-width:2;stroke-linecap:butt;stroke-linejoin:miter;stroke-miterlimit:10;stroke-opacity:1;stroke-dasharray:none" /></g><g
           transform="translate(309.4487,700.1245)"
           id="g412"><path
             d="m 0,0 c 0,-29.811 -24.167,-53.978 -53.978,-53.978 -29.81,0 -53.977,24.167 -53.977,53.978 0,29.811 24.167,53.977 53.977,53.977 C -24.167,53.977 0,29.811 0,0"
             id="path414"
             style="fill:#e7e7e7;fill-opacity:1;fill-rule:nonzero;stroke:none" /></g><g
           transform="translate(309.4487,700.1245)"
           id="g416"><path
             d="m 0,0 c 0,-29.811 -24.167,-53.978 -53.978,-53.978 -29.81,0 -53.977,24.167 -53.977,53.978 0,29.811 24.167,53.977 53.977,53.977 C -24.167,53.977 0,29.811 0,0 z"
             id="path418"
             style="fill:none;stroke:#e5e4e4;stroke-width:1;stroke-linecap:butt;stroke-linejoin:miter;stroke-miterlimit:10;stroke-opacity:1;stroke-dasharray:none" /></g><g
           transform="translate(201.4937,662.102)"
           id="g420"><path
             d="m 0,0 c 0,-27.075 -21.948,-49.022 -49.023,-49.022 -27.075,0 -49.022,21.947 -49.022,49.022 0,27.074 21.947,49.023 49.022,49.023 C -21.948,49.023 0,27.074 0,0"
             id="path422"
             style="fill:#e7e7e7;fill-opacity:1;fill-rule:nonzero;stroke:none" /></g><g
           transform="translate(201.4937,662.102)"
           id="g424"><path
             d="m 0,0 c 0,-27.075 -21.948,-49.022 -49.023,-49.022 -27.075,0 -49.022,21.947 -49.022,49.022 0,27.074 21.947,49.023 49.022,49.023 C -21.948,49.023 0,27.074 0,0 z"
             id="path426"
             style="fill:none;stroke:#e5e4e4;stroke-width:1;stroke-linecap:butt;stroke-linejoin:miter;stroke-miterlimit:10;stroke-opacity:1;stroke-dasharray:none" /></g><g
           transform="translate(110.2661,588.5795)"
           id="g428"><path
             d="m 0,0 c 0,-25.418 -20.604,-46.023 -46.022,-46.023 -25.418,0 -46.024,20.605 -46.024,46.023 0,25.418 20.606,46.022 46.024,46.022 C -20.604,46.022 0,25.418 0,0"
             id="path430"
             style="fill:#e7e7e7;fill-opacity:1;fill-rule:nonzero;stroke:none" /></g><g
           transform="translate(110.2661,588.5795)"
           id="g432"><path
             d="m 0,0 c 0,-25.418 -20.604,-46.023 -46.022,-46.023 -25.418,0 -46.024,20.605 -46.024,46.023 0,25.418 20.606,46.022 46.024,46.022 C -20.604,46.022 0,25.418 0,0 z"
             id="path434"
             style="fill:none;stroke:#e5e4e4;stroke-width:1;stroke-linecap:butt;stroke-linejoin:miter;stroke-miterlimit:10;stroke-opacity:1;stroke-dasharray:none" /></g><g
           transform="translate(160.5386,478.1245)"
           id="g436"><path
             d="m 0,0 c 0,-31.066 -25.184,-56.25 -56.25,-56.25 -31.065,0 -56.25,25.184 -56.25,56.25 0,31.066 25.185,56.25 56.25,56.25 C -25.184,56.25 0,31.066 0,0"
             id="path438"
             style="fill:#e7e7e7;fill-opacity:1;fill-rule:nonzero;stroke:none" /></g><g
           transform="translate(160.5386,478.1245)"
           id="g440"><path
             d="m 0,0 c 0,-31.066 -25.184,-56.25 -56.25,-56.25 -31.065,0 -56.25,25.184 -56.25,56.25 0,31.066 25.185,56.25 56.25,56.25 C -25.184,56.25 0,31.066 0,0 z"
             id="path442"
             style="fill:none;stroke:#e5e4e4;stroke-width:1;stroke-linecap:butt;stroke-linejoin:miter;stroke-miterlimit:10;stroke-opacity:1;stroke-dasharray:none" /></g><g
           transform="translate(89.2661,375.83)"
           id="g444"><path
             d="m 0,0 c 0,-21.338 -17.298,-38.637 -38.636,-38.637 -21.339,0 -38.636,17.299 -38.636,38.637 0,21.337 17.297,38.636 38.636,38.636 C -17.298,38.636 0,21.337 0,0"
             id="path446"
             style="fill:#e7e7e7;fill-opacity:1;fill-rule:nonzero;stroke:none" /></g><g
           transform="translate(89.2661,375.83)"
           id="g448"><path
             d="m 0,0 c 0,-21.338 -17.298,-38.637 -38.636,-38.637 -21.339,0 -38.636,17.299 -38.636,38.637 0,21.337 17.297,38.636 38.636,38.636 C -17.298,38.636 0,21.337 0,0 z"
             id="path450"
             style="fill:none;stroke:#e5e4e4;stroke-width:1;stroke-linecap:butt;stroke-linejoin:miter;stroke-miterlimit:10;stroke-opacity:1;stroke-dasharray:none" /></g><g
           transform="translate(237.2886,577.8178)"
           id="g452"><path
             d="m 0,0 c 0,-19.475 -15.787,-35.262 -35.262,-35.262 -19.473,0 -35.26,15.787 -35.26,35.262 0,19.475 15.787,35.262 35.26,35.262 C -15.787,35.262 0,19.475 0,0"
             id="path454"
             style="fill:#e7e7e7;fill-opacity:1;fill-rule:nonzero;stroke:none" /></g><g
           transform="translate(237.2886,577.8178)"
           id="g456"><path
             d="m 0,0 c 0,-19.475 -15.787,-35.262 -35.262,-35.262 -19.473,0 -35.26,15.787 -35.26,35.262 0,19.475 15.787,35.262 35.26,35.262 C -15.787,35.262 0,19.475 0,0 z"
             id="path458"
             style="fill:none;stroke:#e5e4e4;stroke-width:1;stroke-linecap:butt;stroke-linejoin:miter;stroke-miterlimit:10;stroke-opacity:1;stroke-dasharray:none" /></g><g
           transform="translate(413.7212,671.6704)"
           id="g460"><path
             d="m 0,0 c 0,-24.163 -19.588,-43.75 -43.75,-43.75 -24.162,0 -43.75,19.587 -43.75,43.75 0,24.163 19.588,43.75 43.75,43.75 C -19.588,43.75 0,24.163 0,0"
             id="path462"
             style="fill:#e7e7e7;fill-opacity:1;fill-rule:nonzero;stroke:none" /></g><g
           transform="translate(413.7212,671.6704)"
           id="g464"><path
             d="m 0,0 c 0,-24.163 -19.588,-43.75 -43.75,-43.75 -24.162,0 -43.75,19.587 -43.75,43.75 0,24.163 19.588,43.75 43.75,43.75 C -19.588,43.75 0,24.163 0,0 z"
             id="path466"
             style="fill:none;stroke:#e5e4e4;stroke-width:1;stroke-linecap:butt;stroke-linejoin:miter;stroke-miterlimit:10;stroke-opacity:1;stroke-dasharray:none" /></g><g
           transform="translate(337.4937,609.0561)"
           id="g468"><path
             d="m 0,0 c 0,-19.455 -15.773,-35.227 -35.228,-35.227 -19.456,0 -35.227,15.772 -35.227,35.227 0,19.456 15.771,35.228 35.227,35.228 C -15.773,35.228 0,19.456 0,0"
             id="path470"
             style="fill:#e7e7e7;fill-opacity:1;fill-rule:nonzero;stroke:none" /></g><g
           transform="translate(337.4937,609.0561)"
           id="g472"><path
             d="m 0,0 c 0,-19.455 -15.773,-35.227 -35.228,-35.227 -19.456,0 -35.227,15.772 -35.227,35.227 0,19.456 15.771,35.228 35.227,35.228 C -15.773,35.228 0,19.456 0,0 z"
             id="path474"
             style="fill:none;stroke:#e5e4e4;stroke-width:1;stroke-linecap:butt;stroke-linejoin:miter;stroke-miterlimit:10;stroke-opacity:1;stroke-dasharray:none" /></g><g
           transform="translate(380.9937,529.9204)"
           id="g476"><path
             d="m 0,0 c 0,-21.966 -17.807,-39.773 -39.773,-39.773 -21.965,0 -39.772,17.807 -39.772,39.773 0,21.966 17.807,39.772 39.772,39.772 C -17.807,39.772 0,21.966 0,0"
             id="path478"
             style="fill:#e7e7e7;fill-opacity:1;fill-rule:nonzero;stroke:none" /></g><g
           transform="translate(380.9937,529.9204)"
           id="g480"><path
             d="m 0,0 c 0,-21.966 -17.807,-39.773 -39.773,-39.773 -21.965,0 -39.772,17.807 -39.772,39.773 0,21.966 17.807,39.772 39.772,39.772 C -17.807,39.772 0,21.966 0,0 z"
             id="path482"
             style="fill:none;stroke:#e5e4e4;stroke-width:1;stroke-linecap:butt;stroke-linejoin:miter;stroke-miterlimit:10;stroke-opacity:1;stroke-dasharray:none" /></g><g
           transform="translate(474.1978,576.727)"
           id="g484"><path
             d="m 0,0 c 0,-24.495 -19.857,-44.352 -44.353,-44.352 -24.494,0 -44.351,19.857 -44.351,44.352 0,24.495 19.857,44.352 44.351,44.352 C -19.857,44.352 0,24.495 0,0"
             id="path486"
             style="fill:#e7e7e7;fill-opacity:1;fill-rule:nonzero;stroke:none" /></g><g
           transform="translate(474.1978,576.727)"
           id="g488"><path
             d="m 0,0 c 0,-24.495 -19.857,-44.352 -44.353,-44.352 -24.494,0 -44.351,19.857 -44.351,44.352 0,24.495 19.857,44.352 44.351,44.352 C -19.857,44.352 0,24.495 0,0 z"
             id="path490"
             style="fill:none;stroke:#e5e4e4;stroke-width:1;stroke-linecap:butt;stroke-linejoin:miter;stroke-miterlimit:10;stroke-opacity:1;stroke-dasharray:none" /></g><g
           transform="translate(508.2661,442.0112)"
           id="g492"><path
             d="m 0,0 c 0,-31.38 -25.439,-56.818 -56.817,-56.818 -31.38,0 -56.819,25.438 -56.819,56.818 0,31.38 25.439,56.818 56.819,56.818 C -25.439,56.818 0,31.38 0,0"
             id="path494"
             style="fill:#e7e7e7;fill-opacity:1;fill-rule:nonzero;stroke:none" /></g><g
           transform="translate(508.2661,442.0112)"
           id="g496"><path
             d="m 0,0 c 0,-31.38 -25.439,-56.818 -56.817,-56.818 -31.38,0 -56.819,25.438 -56.819,56.818 0,31.38 25.439,56.818 56.819,56.818 C -25.439,56.818 0,31.38 0,0 z"
             id="path498"
             style="fill:none;stroke:#e5e4e4;stroke-width:1;stroke-linecap:butt;stroke-linejoin:miter;stroke-miterlimit:10;stroke-opacity:1;stroke-dasharray:none" /></g><g
           transform="translate(321.311,459.5112)"
           id="g500"><path
             d="m 0,0 c 0,-14.711 -11.926,-26.637 -26.636,-26.637 -14.711,0 -26.636,11.926 -26.636,26.637 0,14.711 11.925,26.637 26.636,26.637 C -11.926,26.637 0,14.711 0,0"
             id="path502"
             style="fill:#e7e7e7;fill-opacity:1;fill-rule:nonzero;stroke:none" /></g><g
           transform="translate(321.311,459.5112)"
           id="g504"><path
             d="m 0,0 c 0,-14.711 -11.926,-26.637 -26.636,-26.637 -14.711,0 -26.636,11.926 -26.636,26.637 0,14.711 11.925,26.637 26.636,26.637 C -11.926,26.637 0,14.711 0,0 z"
             id="path506"
             style="fill:none;stroke:#e5e4e4;stroke-width:1;stroke-linecap:butt;stroke-linejoin:miter;stroke-miterlimit:10;stroke-opacity:1;stroke-dasharray:none" /></g><g
           transform="translate(126.7202,391.1235)"
           id="g508"><path
             d="m 0,0 c 0,26.194 21.236,47.431 47.431,47.431 26.195,0 47.43,-21.237 47.43,-47.431 0,-26.196 -21.235,-47.43 -47.43,-47.43 C 21.236,-47.43 0,-26.196 0,0"
             id="path510"
             style="fill:#e7e7e7;fill-opacity:1;fill-rule:nonzero;stroke:none" /></g><g
           transform="translate(126.7202,391.1235)"
           id="g512"><path
             d="m 0,0 c 0,26.194 21.236,47.431 47.431,47.431 26.195,0 47.43,-21.237 47.43,-47.431 0,-26.196 -21.235,-47.43 -47.43,-47.43 C 21.236,-47.43 0,-26.196 0,0 z"
             id="path514"
             style="fill:none;stroke:#e5e4e4;stroke-width:1;stroke-linecap:butt;stroke-linejoin:miter;stroke-miterlimit:10;stroke-opacity:1;stroke-dasharray:none" /></g><g
           transform="translate(185.6753,310.7714)"
           id="g516"><path
             d="M 0,0 C 0,13.424 10.883,24.307 24.307,24.307 37.73,24.307 48.613,13.424 48.613,0 48.613,-13.424 37.73,-24.307 24.307,-24.307 10.883,-24.307 0,-13.424 0,0"
             id="path518"
             style="fill:#e7e7e7;fill-opacity:1;fill-rule:nonzero;stroke:none" /></g><g
           transform="translate(185.6753,310.7714)"
           id="g520"><path
             d="M 0,0 C 0,13.424 10.883,24.307 24.307,24.307 37.73,24.307 48.613,13.424 48.613,0 48.613,-13.424 37.73,-24.307 24.307,-24.307 10.883,-24.307 0,-13.424 0,0 z"
             id="path522"
             style="fill:none;stroke:#e5e4e4;stroke-width:1;stroke-linecap:butt;stroke-linejoin:miter;stroke-miterlimit:10;stroke-opacity:1;stroke-dasharray:none" /></g><g
           transform="translate(306.4487,370.875)"
           id="g524"><path
             d="M 0,0 C 0,24.4 19.781,44.181 44.182,44.181 68.582,44.181 88.363,24.4 88.363,0 88.363,-24.4 68.582,-44.182 44.182,-44.182 19.781,-44.182 0,-24.4 0,0"
             id="path526"
             style="fill:#e7e7e7;fill-opacity:1;fill-rule:nonzero;stroke:none" /></g><g
           transform="translate(306.4487,370.875)"
           id="g528"><path
             d="M 0,0 C 0,24.4 19.781,44.181 44.182,44.181 68.582,44.181 88.363,24.4 88.363,0 88.363,-24.4 68.582,-44.182 44.182,-44.182 19.781,-44.182 0,-24.4 0,0 z"
             id="path530"
             style="fill:none;stroke:#e5e4e4;stroke-width:1;stroke-linecap:butt;stroke-linejoin:miter;stroke-miterlimit:10;stroke-opacity:1;stroke-dasharray:none" /></g></g></g><g
       id="g532"><g
         clip-path="url(#clipPath536)"
         id="g534"><g
           transform="translate(58.6157,401.2358)"
           id="g540"><path
             d="m 0,0 c -7.685,-0.609 -9.593,-8.479 -9.251,-10.329 0.025,-0.13 -0.016,-0.098 0.121,-0.093 6.385,0.203 9.724,7.074 9.153,10.308 C 0.003,-0.003 0.003,0.001 0,0"
             id="path542"
             style="fill:#7e2a97;fill-opacity:1;fill-rule:nonzero;stroke:none" /></g><g
           transform="translate(58.6157,401.2358)"
           id="g544"><path
             d="m 0,0 c -7.685,-0.609 -9.593,-8.479 -9.251,-10.329 0.025,-0.13 -0.016,-0.098 0.121,-0.093 6.385,0.203 9.724,7.074 9.153,10.308 C 0.003,-0.003 0.003,0.001 0,0 z"
             id="path546"
             style="fill:none;stroke:#7e2a97;stroke-width:1;stroke-linecap:butt;stroke-linejoin:miter;stroke-miterlimit:10;stroke-opacity:1;stroke-dasharray:none" /></g><g
           transform="translate(47.562,389.166)"
           id="g548"><path
             d="m 0,0 c 2.402,-1.162 3.242,-0.689 5.165,0.168 4.334,1.93 10.959,1.995 14.028,-3.424 -6.35,-4.325 -6.577,-13.335 0.926,-18 -1.496,-6.827 -5.095,-9.561 -6.498,-11.076 -1.321,-1.427 -5.427,-1.4 -6.949,-0.336 -1.612,1.127 -5.941,1.067 -7.429,-0.042 -1.869,-1.393 -5.073,-0.892 -5.615,-0.523 -11.427,7.775 -15.69,32.007 0.529,34.588 C -3.047,1.8 0.03,0.037 0.03,0.037"
             id="path550"
             style="fill:#7e2a97;fill-opacity:1;fill-rule:nonzero;stroke:#7e2a97;stroke-width:1;stroke-linecap:butt;stroke-linejoin:miter;stroke-miterlimit:10;stroke-opacity:1;stroke-dasharray:none" /></g><g
           transform="translate(469.0669,437.9306)"
           id="g552"><path
             d="M 0,0 -17.667,26.502 -35.334,0 l 9.52,0 0,-18.727 16.294,0 L -9.52,0 0,0 z m 17.333,3.888 c 0,-19.33 -15.67,-35 -35,-35 -19.33,0 -35,15.67 -35,35 0,19.33 15.67,35 35,35 19.33,0 35,-15.67 35,-35"
             id="path554"
             style="fill:#7e2a97;fill-opacity:1;fill-rule:nonzero;stroke:none" /></g><g
           transform="translate(469.0669,437.9306)"
           id="g556"><path
             d="M 0,0 -17.667,26.502 -35.334,0 l 9.52,0 0,-18.727 16.294,0 L -9.52,0 0,0 z m 17.333,3.888 c 0,-19.33 -15.67,-35 -35,-35 -19.33,0 -35,15.67 -35,35 0,19.33 15.67,35 35,35 19.33,0 35,-15.67 35,-35 z"
             id="path558"
             style="fill:none;stroke:#7e2a97;stroke-width:1;stroke-linecap:butt;stroke-linejoin:miter;stroke-miterlimit:10;stroke-opacity:1;stroke-dasharray:none" /></g><g
           transform="translate(350.5825,357.6113)"
           id="g560"><path
             d="m 0,0 c -7.219,0 -13.071,5.852 -13.071,13.071 0,7.219 5.851,13.071 13.071,13.071 7.219,0 13.071,-5.852 13.071,-13.071 C 13.071,5.852 7.219,0 0,0 m 26.591,6.877 c -3.387,5.866 -1.35,13.384 4.549,16.8 l -6.344,10.988 c -1.813,-1.063 -3.92,-1.672 -6.169,-1.672 -6.779,0 -12.274,5.532 -12.274,12.356 l -12.689,0 c 0.017,-2.106 -0.509,-4.242 -1.636,-6.194 -3.387,-5.867 -10.917,-7.862 -16.824,-4.461 L -31.14,23.706 c 1.827,-1.038 3.408,-2.559 4.533,-4.506 3.381,-5.857 1.355,-13.36 -4.521,-16.784 l 6.344,-10.988 c 1.806,1.052 3.903,1.655 6.139,1.655 6.758,0 12.24,-5.496 12.275,-12.291 l 12.688,0 c -0.006,2.086 0.522,4.197 1.637,6.13 3.381,5.856 10.893,7.854 16.796,4.475 L 31.095,2.386 C 29.28,3.424 27.709,4.939 26.591,6.877"
             id="path562"
             style="fill:#2b76c2;fill-opacity:1;fill-rule:nonzero;stroke:none" /></g><g
           transform="translate(218.8189,717.7622)"
           id="g564"><path
             d="m 0,0 0.02,-0.038 4.17,-8.351 8.173,-16.363 3.767,1.88 -6.71,13.434 -2.612,5.229 1.563,0 20.444,0 -4.081,-8.173 3.765,-1.881 5.015,10.04 2.105,4.214 L 35.623,0 0,0 z"
             id="path566"
             style="fill:#44399a;fill-opacity:1;fill-rule:nonzero;stroke:none" /></g><g
           transform="translate(242.273,693.8437)"
           id="g568"><path
             d="m 0,0 -9.209,-4.599 3.566,-7.144 5.755,11.522 0.186,0.37 L 0,0 z"
             id="path570"
             style="fill:#44399a;fill-opacity:1;fill-rule:nonzero;stroke:none" /></g><g
           transform="translate(239.4321,697.1303)"
           id="g572"><path
             d="M 0,0 5.608,2.801 2.239,4.484 0,0 z"
             id="path574"
             style="fill:#44399a;fill-opacity:1;fill-rule:nonzero;stroke:none" /></g><g
           transform="translate(227.19,713.5532)"
           id="g576"><path
             d="m 0,0 -1.563,0 2.612,-5.229 16.802,-8.393 -22.032,-11.004 0,20.446 -4.171,8.351 -0.038,0.019 0,-35.623 35.663,17.811 L 0,0 z"
             id="path578"
             style="fill:#44399a;fill-opacity:1;fill-rule:nonzero;stroke:none" /></g><g
           transform="translate(267.6792,711.8613)"
           id="g580"><path
             d="m 0,0 c -1.248,-0.687 -2.375,-1.565 -3.346,-2.593 2.305,-2.44 3.72,-5.724 3.72,-9.337 0,-3.612 -1.415,-6.896 -3.72,-9.336 -0.969,-1.028 -2.096,-1.906 -3.344,-2.594 -1.944,-1.07 -4.174,-1.681 -6.547,-1.681 -5.231,0 -9.778,2.965 -12.057,7.303 l -2.194,-4.393 c 3.252,-4.324 8.426,-7.12 14.251,-7.12 3.661,0 7.062,1.105 9.891,2.997 1.234,0.824 2.357,1.797 3.346,2.894 2.849,3.159 4.585,7.342 4.585,11.93 C 4.585,-7.341 2.849,-3.159 0,0"
             id="path582"
             style="fill:#44399a;fill-opacity:1;fill-rule:nonzero;stroke:none" /></g><g
           transform="translate(260.9888,711.8613)"
           id="g584"><path
             d="M 0,0 C 0.989,1.097 2.113,2.07 3.345,2.894 0.516,4.787 -2.886,5.892 -6.547,5.892 l -0.004,0 -2.105,-4.214 c 1.166,0.003 2.04,0.004 2.109,0.004 C -4.174,1.682 -1.943,1.071 0,0"
             id="path586"
             style="fill:#44399a;fill-opacity:1;fill-rule:nonzero;stroke:none" /></g><g
           transform="translate(274.2271,717.7529)"
           id="g588"><path
             d="m 0,0 c -3.662,0 -7.062,-1.105 -9.894,-2.997 -1.231,-0.824 -2.355,-1.797 -3.344,-2.895 -2.848,-3.158 -4.585,-7.34 -4.585,-11.929 0,-4.589 1.737,-8.771 4.585,-11.931 1.248,0.688 2.375,1.566 3.344,2.594 -2.302,2.44 -3.719,5.725 -3.719,9.337 0,3.612 1.417,6.897 3.719,9.336 0.971,1.028 2.098,1.906 3.346,2.593 1.944,1.071 4.174,1.682 6.548,1.682 7.505,0 13.61,-6.106 13.61,-13.611 0,-7.505 -6.105,-13.612 -13.61,-13.612 -2.374,0 -4.604,0.611 -6.548,1.681 -0.989,-1.097 -2.112,-2.069 -3.346,-2.894 2.832,-1.891 6.233,-2.996 9.894,-2.996 9.841,0 17.819,7.979 17.819,17.821 C 17.819,-7.979 9.841,0 0,0"
             id="path590"
             style="fill:#44399a;fill-opacity:1;fill-rule:nonzero;stroke:none" /></g><g
           transform="translate(64.2417,595.9707)"
           id="g592"><path
             d="m 0,0 c -2.145,0 -3.968,-0.751 -5.47,-2.252 -1.501,-1.502 -2.252,-3.294 -2.252,-5.378 0,-2.084 0.751,-3.876 2.252,-5.378 1.502,-1.501 3.325,-2.252 5.47,-2.252 2.083,0 3.876,0.736 5.377,2.206 1.502,1.471 2.252,3.279 2.252,5.424 0,2.145 -0.75,3.953 -2.252,5.424 C 3.876,-0.735 2.083,0 0,0 m -8.09,-26.935 c -0.245,0.981 -0.827,1.748 -1.746,2.299 -0.919,0.551 -1.9,0.674 -2.942,0.367 l -5.607,-1.654 c -1.042,-0.306 -2.115,-0.229 -3.218,0.23 -1.103,0.46 -1.899,1.149 -2.39,2.068 l -1.93,3.31 c -0.49,0.919 -0.643,1.961 -0.46,3.125 0.184,1.165 0.644,2.114 1.379,2.849 l 4.137,4.045 c 0.735,0.735 1.103,1.624 1.103,2.666 0,1.042 -0.368,1.931 -1.103,2.666 l -4.137,4.045 c -0.796,0.735 -1.256,1.685 -1.379,2.85 -0.122,1.164 0.062,2.206 0.552,3.125 l 1.838,3.401 c 0.491,0.919 1.287,1.594 2.39,2.022 1.103,0.429 2.176,0.491 3.218,0.184 l 5.607,-1.562 c 1.042,-0.307 2.023,-0.185 2.942,0.367 0.919,0.551 1.501,1.318 1.746,2.299 l 1.379,5.607 c 0.307,1.042 0.919,1.93 1.839,2.665 0.919,0.735 1.899,1.104 2.941,1.104 l 3.769,0 c 1.042,0 2.023,-0.369 2.942,-1.104 0.919,-0.735 1.532,-1.623 1.838,-2.665 L 8.089,11.767 C 8.395,10.725 8.993,9.958 9.882,9.468 10.77,8.977 11.705,8.855 12.686,9.101 l 5.607,1.562 c 1.041,0.307 2.114,0.245 3.217,-0.184 1.103,-0.428 1.9,-1.103 2.39,-2.022 l 1.931,-3.401 c 0.49,-0.919 0.643,-1.961 0.459,-3.125 -0.184,-1.165 -0.643,-2.115 -1.378,-2.85 l -4.137,-4.045 c -0.797,-0.735 -1.18,-1.624 -1.149,-2.666 0.03,-1.042 0.414,-1.931 1.149,-2.666 l 4.137,-4.045 c 0.735,-0.735 1.194,-1.684 1.378,-2.849 0.184,-1.164 0.031,-2.206 -0.459,-3.125 l -1.931,-3.31 c -0.49,-0.919 -1.287,-1.608 -2.39,-2.068 -1.103,-0.459 -2.176,-0.536 -3.217,-0.23 l -5.607,1.654 c -0.981,0.246 -1.916,0.123 -2.804,-0.367 -0.889,-0.49 -1.487,-1.257 -1.793,-2.299 l -1.471,-5.699 c -0.306,-1.042 -0.919,-1.915 -1.838,-2.62 -0.919,-0.704 -1.9,-1.057 -2.942,-1.057 l -3.769,0 c -1.042,0 -2.022,0.353 -2.941,1.057 -0.92,0.705 -1.532,1.578 -1.839,2.62 l -1.379,5.699 z"
             id="path594"
             style="fill:#7e2a97;fill-opacity:1;fill-rule:nonzero;stroke:none" /></g><g
           transform="translate(64.2417,595.9707)"
           id="g596"><path
             d="m 0,0 c -2.145,0 -3.968,-0.751 -5.47,-2.252 -1.501,-1.502 -2.252,-3.294 -2.252,-5.378 0,-2.084 0.751,-3.876 2.252,-5.378 1.502,-1.501 3.325,-2.252 5.47,-2.252 2.083,0 3.876,0.736 5.377,2.206 1.502,1.471 2.252,3.279 2.252,5.424 0,2.145 -0.75,3.953 -2.252,5.424 C 3.876,-0.735 2.083,0 0,0 z m -8.09,-26.935 c -0.245,0.981 -0.827,1.748 -1.746,2.299 -0.919,0.551 -1.9,0.674 -2.942,0.367 l -5.607,-1.654 c -1.042,-0.306 -2.115,-0.229 -3.218,0.23 -1.103,0.46 -1.899,1.149 -2.39,2.068 l -1.93,3.31 c -0.49,0.919 -0.643,1.961 -0.46,3.125 0.184,1.165 0.644,2.114 1.379,2.849 l 4.137,4.045 c 0.735,0.735 1.103,1.624 1.103,2.666 0,1.042 -0.368,1.931 -1.103,2.666 l -4.137,4.045 c -0.796,0.735 -1.256,1.685 -1.379,2.85 -0.122,1.164 0.062,2.206 0.552,3.125 l 1.838,3.401 c 0.491,0.919 1.287,1.594 2.39,2.022 1.103,0.429 2.176,0.491 3.218,0.184 l 5.607,-1.562 c 1.042,-0.307 2.023,-0.185 2.942,0.367 0.919,0.551 1.501,1.318 1.746,2.299 l 1.379,5.607 c 0.307,1.042 0.919,1.93 1.839,2.665 0.919,0.735 1.899,1.104 2.941,1.104 l 3.769,0 c 1.042,0 2.023,-0.369 2.942,-1.104 0.919,-0.735 1.532,-1.623 1.838,-2.665 L 8.089,11.767 C 8.395,10.725 8.993,9.958 9.882,9.468 10.77,8.977 11.705,8.855 12.686,9.101 l 5.607,1.562 c 1.041,0.307 2.114,0.245 3.217,-0.184 1.103,-0.428 1.9,-1.103 2.39,-2.022 l 1.931,-3.401 c 0.49,-0.919 0.643,-1.961 0.459,-3.125 -0.184,-1.165 -0.643,-2.115 -1.378,-2.85 l -4.137,-4.045 c -0.797,-0.735 -1.18,-1.624 -1.149,-2.666 0.03,-1.042 0.414,-1.931 1.149,-2.666 l 4.137,-4.045 c 0.735,-0.735 1.194,-1.684 1.378,-2.849 0.184,-1.164 0.031,-2.206 -0.459,-3.125 l -1.931,-3.31 c -0.49,-0.919 -1.287,-1.608 -2.39,-2.068 -1.103,-0.459 -2.176,-0.536 -3.217,-0.23 l -5.607,1.654 c -0.981,0.246 -1.916,0.123 -2.804,-0.367 -0.889,-0.49 -1.487,-1.257 -1.793,-2.299 l -1.471,-5.699 c -0.306,-1.042 -0.919,-1.915 -1.838,-2.62 -0.919,-0.704 -1.9,-1.057 -2.942,-1.057 l -3.769,0 c -1.042,0 -2.022,0.353 -2.941,1.057 -0.92,0.705 -1.532,1.578 -1.839,2.62 l -1.379,5.699 z"
             id="path598"
             style="fill:none;stroke:#7e2a97;stroke-width:1;stroke-linecap:butt;stroke-linejoin:miter;stroke-miterlimit:10;stroke-opacity:1;stroke-dasharray:none" /></g><g
           transform="translate(220.1094,322.9638)"
           id="g600"><path
             d="M 0,0 C -3.79,1.522 -8.032,0.087 -10.175,-3.215 -12.317,0.087 -16.56,1.522 -20.35,0 c -4.305,-1.729 -6.394,-6.623 -4.664,-10.929 1.659,-4.129 14.802,-14.418 14.802,-14.418 l 0.037,-0.029 0.037,0.029 c 0,0 13.143,10.289 14.802,14.418 C 6.394,-6.623 4.306,-1.729 0,0"
             id="path602"
             style="fill:#44399a;fill-opacity:1;fill-rule:nonzero;stroke:none" /></g><g
           transform="translate(214.3355,579.2314)"
           id="g604"><path
             d="m 0,0 -11.337,-11.336 c -0.561,-0.56 -1.48,-0.56 -2.041,0 l -11.334,11.334 c -0.561,0.56 -0.561,1.479 0,2.039 l 2.487,2.489 c 0.946,0.947 2.371,0.821 3.211,-0.021 l 5.636,-5.634 c 0.561,-0.562 1.48,-0.562 2.041,0 l 5.653,5.651 c 0.947,0.948 2.315,0.89 3.201,0.002 L 0,2.042 C 0.561,1.481 0.561,0.561 0,0 m -12.356,22.941 c -13.558,0 -24.548,-10.989 -24.548,-24.547 0,-13.557 10.99,-24.548 24.548,-24.548 13.557,0 24.548,10.991 24.548,24.548 0,13.558 -10.991,24.547 -24.548,24.547"
             id="path606"
             style="fill:#7e2a97;fill-opacity:1;fill-rule:nonzero;stroke:none" /></g><g
           transform="translate(214.3355,579.2314)"
           id="g608"><path
             d="m 0,0 -11.337,-11.336 c -0.561,-0.56 -1.48,-0.56 -2.041,0 l -11.334,11.334 c -0.561,0.56 -0.561,1.479 0,2.039 l 2.487,2.489 c 0.946,0.947 2.371,0.821 3.211,-0.021 l 5.636,-5.634 c 0.561,-0.562 1.48,-0.562 2.041,0 l 5.653,5.651 c 0.947,0.948 2.315,0.89 3.201,0.002 L 0,2.042 C 0.561,1.481 0.561,0.561 0,0 z m -12.356,22.941 c -13.558,0 -24.548,-10.989 -24.548,-24.547 0,-13.557 10.99,-24.548 24.548,-24.548 13.557,0 24.548,10.991 24.548,24.548 0,13.558 -10.991,24.547 -24.548,24.547 z"
             id="path610"
             style="fill:none;stroke:#7e2a97;stroke-width:1;stroke-linecap:butt;stroke-linejoin:miter;stroke-miterlimit:10;stroke-opacity:1;stroke-dasharray:none" /></g><g
           transform="translate(112.356,477.8847)"
           id="g612"><path
             d="m 0,0 c 0,-4.435 -3.774,-8.02 -8.115,-8.02 -4.434,0 -8.02,3.585 -8.02,8.02 0,4.341 3.586,8.115 8.02,8.115 C -3.774,8.115 0,4.341 0,0 m -8.115,-18.023 c 9.908,0 18.023,8.115 18.023,18.023 0,9.908 -8.115,18.023 -18.023,18.023 -9.908,0 -18.022,-8.115 -18.022,-18.023 0,-9.908 8.114,-18.023 18.022,-18.023 m 0,43.689 C 13.871,25.666 28.685,0 28.685,0 c 0,0 -14.814,-25.572 -36.8,-25.572 -21.986,0 -36.8,25.572 -36.8,25.572 0,0 14.814,25.666 36.8,25.666"
             id="path614"
             style="fill:#44399a;fill-opacity:1;fill-rule:nonzero;stroke:none" /></g><g
           transform="translate(174.1035,396.7944)"
           id="g616"><path
             d="m 0,0 c -3.239,0 -5.865,-2.625 -5.865,-5.864 0,-3.24 2.626,-5.865 5.865,-5.865 3.239,0 5.864,2.625 5.864,5.865 C 5.864,-2.625 3.239,0 0,0 m -3.17,14.423 6.339,0 0.614,-6.12 C 5.044,7.967 6.24,7.471 7.343,6.831 l 4.763,3.894 4.483,-4.483 -3.894,-4.764 c 0.64,-1.103 1.136,-2.298 1.471,-3.559 l 6.121,-0.614 0,-6.34 -6.121,-0.617 c -0.335,-1.261 -0.831,-2.454 -1.471,-3.556 l 3.894,-4.763 -4.483,-4.484 -4.767,3.894 C 6.236,-19.2 5.044,-19.695 3.783,-20.031 l -0.614,-6.121 -6.339,0 -0.618,6.121 c -1.259,0.336 -2.45,0.833 -3.552,1.47 l -4.767,-3.894 -4.482,4.484 3.893,4.767 c -0.638,1.101 -1.136,2.292 -1.472,3.552 l -6.12,0.617 0,6.34 6.12,0.614 c 0.336,1.261 0.833,2.453 1.472,3.557 l -3.893,4.766 4.482,4.483 4.763,-3.894 c 1.102,0.639 2.296,1.136 3.556,1.472 l 0.618,6.12 z M 0,27.428 c -18.387,0 -33.293,-14.906 -33.293,-33.292 0,-18.387 14.906,-33.292 33.293,-33.292 18.387,0 33.292,14.905 33.292,33.292 0,18.386 -14.905,33.292 -33.292,33.292"
             id="path618"
             style="fill:#2b76c2;fill-opacity:1;fill-rule:nonzero;stroke:none" /></g><g
           transform="translate(378.0728,671.477)"
           id="g620"><path
             d="m 0,0 c 0,-4.498 -3.651,-8.149 -8.15,-8.149 -4.498,0 -8.149,3.651 -8.149,8.149 0,4.499 3.651,8.149 8.149,8.149 C -3.651,8.149 0,4.499 0,0 M -11.152,25.718 -12.54,14.927 c -1.078,-0.316 -2.111,-0.736 -3.079,-1.266 l -8.668,6.573 -4.173,-4.173 6.638,-8.595 c -0.533,-0.971 -0.953,-2.009 -1.271,-3.092 l -10.774,-1.479 0,-5.898 10.765,-1.383 c 0.319,-1.087 0.742,-2.128 1.276,-3.104 l -6.558,-8.647 4.173,-4.173 8.575,6.625 c 0.977,-0.536 2.019,-0.963 3.109,-1.282 l 1.479,-10.75 5.902,0 1.378,10.754 c 1.089,0.319 2.131,0.745 3.108,1.282 l 8.643,-6.553 4.173,4.173 -6.625,8.584 c 0.532,0.973 0.954,2.014 1.271,3.1 l 10.765,1.479 0,5.901 L 6.793,4.386 C 6.475,5.467 6.047,6.5 5.515,7.47 l 6.569,8.663 -4.173,4.174 -8.603,-6.642 c -0.968,0.529 -2.001,0.947 -3.079,1.262 l -1.485,10.791 -5.896,0 z"
             id="path622"
             style="fill:#7e2a97;fill-opacity:1;fill-rule:nonzero;stroke:none" /></g><g
           transform="translate(378.0728,671.477)"
           id="g624"><path
             d="m 0,0 c 0,-4.498 -3.651,-8.149 -8.15,-8.149 -4.498,0 -8.149,3.651 -8.149,8.149 0,4.499 3.651,8.149 8.149,8.149 C -3.651,8.149 0,4.499 0,0 z M -11.152,25.718 -12.54,14.927 c -1.078,-0.316 -2.111,-0.736 -3.079,-1.266 l -8.668,6.573 -4.173,-4.173 6.638,-8.595 c -0.533,-0.971 -0.953,-2.009 -1.271,-3.092 l -10.774,-1.479 0,-5.898 10.765,-1.383 c 0.319,-1.087 0.742,-2.128 1.276,-3.104 l -6.558,-8.647 4.173,-4.173 8.575,6.625 c 0.977,-0.536 2.019,-0.963 3.109,-1.282 l 1.479,-10.75 5.902,0 1.378,10.754 c 1.089,0.319 2.131,0.745 3.108,1.282 l 8.643,-6.553 4.173,4.173 -6.625,8.584 c 0.532,0.973 0.954,2.014 1.271,3.1 l 10.765,1.479 0,5.901 L 6.793,4.386 C 6.475,5.467 6.047,6.5 5.515,7.47 l 6.569,8.663 -4.173,4.174 -8.603,-6.642 c -0.968,0.529 -2.001,0.947 -3.079,1.262 l -1.485,10.791 -5.896,0 z"
             id="path626"
             style="fill:none;stroke:#7e2a97;stroke-width:1;stroke-linecap:butt;stroke-linejoin:miter;stroke-miterlimit:10;stroke-opacity:1;stroke-dasharray:none" /></g><g
           transform="translate(409.6107,586.1723)"
           id="g628"><path
             d="m 0,0 -0.142,0 c -1.82,0 -3.303,-1.489 -3.303,-3.304 l 0,-14.382 c 0,-1.821 1.483,-3.305 3.303,-3.305 l 0.145,0 c 1.82,0 3.304,1.489 3.304,3.305 l 0,14.382 C 3.302,-1.489 1.818,0 0,0"
             id="path630"
             style="fill:#44399a;fill-opacity:1;fill-rule:nonzero;stroke:none" /></g><g
           transform="translate(414.4984,562.935)"
           id="g632"><path
             d="m 0,0 c 0,-1.67 1.363,-3.031 3.036,-3.031 l 3.241,0 0,-7.767 c 0,-1.825 1.492,-3.308 3.302,-3.308 l 0.145,0 c 1.82,0 3.308,1.485 3.308,3.308 l 0,7.767 4.534,0 0,-7.767 c 0,-1.825 1.493,-3.308 3.307,-3.308 l 0.141,0 c 1.82,0 3.303,1.485 3.303,3.308 l 0,7.767 3.247,0 c 1.669,0 3.035,1.361 3.035,3.031 l 0,22.708 L 0,22.708 0,0 z"
             id="path634"
             style="fill:#44399a;fill-opacity:1;fill-rule:nonzero;stroke:none" /></g><g
           transform="translate(436.9194,592.2934)"
           id="g636"><path
             d="m 0,0 c -0.815,0 -1.479,0.656 -1.479,1.476 0,0.818 0.664,1.475 1.479,1.475 0.818,0 1.476,-0.657 1.476,-1.475 C 1.476,0.656 0.818,0 0,0 m -14.242,0 c -0.819,0 -1.479,0.656 -1.479,1.476 0,0.818 0.66,1.475 1.479,1.475 0.821,0 1.48,-0.657 1.48,-1.475 0,-0.82 -0.664,-1.476 -1.48,-1.476 m 14.741,7.121 2.575,3.977 c 0.167,0.252 0.094,0.594 -0.16,0.758 -0.251,0.167 -0.593,0.097 -0.757,-0.162 L -0.517,7.581 c -2,0.82 -4.241,1.283 -6.602,1.283 -2.366,0 -4.602,-0.463 -6.61,-1.283 l -2.666,4.113 c -0.164,0.259 -0.508,0.329 -0.762,0.162 -0.255,-0.164 -0.329,-0.506 -0.162,-0.758 l 2.578,-3.977 c -4.649,-2.278 -7.782,-6.574 -7.782,-11.499 0,-0.304 0.017,-0.601 0.044,-0.898 l 30.721,0 c 0.025,0.297 0.041,0.594 0.041,0.898 0,4.925 -3.137,9.221 -7.784,11.499"
             id="path638"
             style="fill:#44399a;fill-opacity:1;fill-rule:nonzero;stroke:none" /></g><g
           transform="translate(450.1245,586.1723)"
           id="g640"><path
             d="m 0,0 -0.138,0 c -1.819,0 -3.307,-1.489 -3.307,-3.304 l 0,-14.382 c 0,-1.821 1.49,-3.305 3.307,-3.305 l 0.141,0 c 1.822,0 3.303,1.489 3.303,3.305 l 0,14.382 C 3.306,-1.489 1.822,0 0,0"
             id="path642"
             style="fill:#44399a;fill-opacity:1;fill-rule:nonzero;stroke:none" /></g><g
           transform="translate(308.2563,602.9824)"
           id="g644"><path
             d="m 0,0 c -1.152,-1.692 -2.455,-3.604 -2.535,-6.232 -0.396,-0.442 -1.809,-1.16 -3.498,-1.16 -1.692,0 -3.106,0.719 -3.5,1.16 -0.08,2.63 -1.385,4.542 -2.539,6.234 -1.287,1.886 -2.502,3.667 -2.502,6.853 0,4.44 3.83,8.052 8.537,8.052 C -1.33,14.907 2.5,11.295 2.5,6.855 2.5,3.668 1.285,1.886 0,0 m -6.037,17.932 c -6.385,0 -11.564,-4.959 -11.564,-11.078 0,-7.264 5.045,-9.115 5.045,-13.343 0,-1.045 0.799,-2.017 1.999,-2.732 -0.251,-0.208 -0.39,-0.437 -0.39,-0.677 0,-0.322 0.252,-0.624 0.687,-0.881 -0.408,-0.253 -0.644,-0.544 -0.644,-0.856 0,-0.314 0.242,-0.608 0.658,-0.863 -0.426,-0.256 -0.674,-0.554 -0.674,-0.872 0,-0.387 0.366,-0.743 0.979,-1.032 -0.238,-0.215 -0.373,-0.454 -0.373,-0.705 0,-0.738 1.152,-1.369 2.773,-1.62 0.285,-0.526 0.863,-0.892 1.537,-0.892 0.674,0 1.25,0.363 1.535,0.888 1.637,0.249 2.803,0.88 2.803,1.624 0,0.247 -0.131,0.482 -0.363,0.694 0.625,0.291 0.998,0.651 0.998,1.042 0,0.315 -0.241,0.61 -0.659,0.864 0.424,0.256 0.673,0.553 0.673,0.871 0,0.321 -0.254,0.623 -0.688,0.881 0.41,0.252 0.645,0.544 0.645,0.856 0,0.249 -0.151,0.484 -0.42,0.698 1.18,0.713 1.965,1.675 1.965,2.711 0,4.228 5.039,6.08 5.039,13.343 0.001,6.12 -5.175,11.079 -11.561,11.079"
             id="path646"
             style="fill:#44399a;fill-opacity:1;fill-rule:nonzero;stroke:none" /></g><g
           transform="translate(302.2191,624.7988)"
           id="g648"><path
             d="m 0,0 c 0.832,0 1.513,0.9 1.513,2 l 0,3.564 c 0,1.1 -0.681,2 -1.513,2 -0.832,0 -1.514,-0.9 -1.514,-2 L -1.514,2 C -1.514,0.899 -0.832,0 0,0"
             id="path650"
             style="fill:#44399a;fill-opacity:1;fill-rule:nonzero;stroke:none" /></g><g
           transform="translate(294.4653,622.7216)"
           id="g652"><path
             d="m 0,0 c 0.721,0.416 0.859,1.535 0.311,2.487 l -1.782,3.087 c -0.55,0.953 -1.59,1.393 -2.31,0.977 C -4.502,6.135 -4.642,5.015 -4.093,4.062 L -2.31,0.976 C -1.76,0.022 -0.721,-0.416 0,0"
             id="path654"
             style="fill:#44399a;fill-opacity:1;fill-rule:nonzero;stroke:none" /></g><g
           transform="translate(287.814,619.3564)"
           id="g656"><path
             d="m 0,0 -3.085,1.782 c -0.953,0.55 -2.073,0.41 -2.489,-0.31 -0.416,-0.721 0.022,-1.76 0.975,-2.31 L -1.513,-2.62 C -0.56,-3.17 0.56,-3.031 0.976,-2.31 1.391,-1.589 0.952,-0.55 0,0"
             id="path658"
             style="fill:#44399a;fill-opacity:1;fill-rule:nonzero;stroke:none" /></g><g
           transform="translate(321.2232,600.0683)"
           id="g660"><path
             d="m 0,0 -3.086,1.782 c -0.953,0.55 -2.073,0.411 -2.488,-0.31 -0.416,-0.721 0.021,-1.76 0.976,-2.31 L -1.514,-2.62 C -0.561,-3.17 0.56,-3.031 0.975,-2.31 1.392,-1.589 0.953,-0.55 0,0"
             id="path662"
             style="fill:#44399a;fill-opacity:1;fill-rule:nonzero;stroke:none" /></g><g
           transform="translate(286.7133,609.2929)"
           id="g664"><path
             d="m 0,0 c 0,0.833 -0.9,1.514 -2,1.514 l -3.564,0 c -1.1,0 -2,-0.682 -2,-1.514 0,-0.832 0.9,-1.513 2,-1.513 l 3.564,0 c 1.1,0 2,0.681 2,1.513"
             id="path666"
             style="fill:#44399a;fill-opacity:1;fill-rule:nonzero;stroke:none" /></g><g
           transform="translate(323.2886,610.8066)"
           id="g668"><path
             d="m 0,0 -3.564,0 c -1.099,0 -2,-0.682 -2,-1.514 0,-0.832 0.901,-1.512 2,-1.512 l 3.564,0 c 1.101,0 2,0.68 2,1.512 C 2,-0.682 1.101,0 0,0"
             id="path670"
             style="fill:#44399a;fill-opacity:1;fill-rule:nonzero;stroke:none" /></g><g
           transform="translate(286.3013,601.8505)"
           id="g672"><path
             d="m 0,0 -3.086,-1.782 c -0.953,-0.55 -1.393,-1.589 -0.976,-2.311 0.415,-0.72 1.536,-0.859 2.488,-0.309 l 3.086,1.782 c 0.953,0.55 1.391,1.589 0.975,2.309 C 2.072,0.41 0.953,0.55 0,0"
             id="path674"
             style="fill:#44399a;fill-opacity:1;fill-rule:nonzero;stroke:none" /></g><g
           transform="translate(318.1371,616.7363)"
           id="g676"><path
             d="m 0,0 3.086,1.782 c 0.953,0.55 1.392,1.589 0.976,2.31 -0.416,0.72 -1.537,0.86 -2.49,0.31 L -1.512,2.62 C -2.465,2.07 -2.904,1.031 -2.488,0.31 -2.073,-0.411 -0.953,-0.55 0,0"
             id="path678"
             style="fill:#44399a;fill-opacity:1;fill-rule:nonzero;stroke:none" /></g><g
           transform="translate(313.7544,629.2734)"
           id="g680"><path
             d="m 0,0 c -0.722,0.416 -1.762,-0.023 -2.311,-0.977 l -1.782,-3.086 c -0.55,-0.954 -0.411,-2.072 0.31,-2.488 0.722,-0.416 1.761,0.023 2.31,0.976 l 1.784,3.087 C 0.86,-1.536 0.721,-0.416 0,0"
             id="path682"
             style="fill:#44399a;fill-opacity:1;fill-rule:nonzero;stroke:none" /></g><g
           transform="translate(303.8101,455.3188)"
           id="g684"><path
             d="m 0,0 c -1.59,0 -2.993,-0.758 -3.91,-1.918 l -8.501,4.347 c 0.112,0.415 0.191,0.845 0.191,1.296 0,0.492 -0.094,0.954 -0.226,1.404 l 8.463,4.327 c 0.911,-1.212 2.352,-2.005 3.986,-2.005 2.768,0 5.007,2.24 5.007,5.006 0,2.763 -2.239,5.004 -5.007,5.004 -2.763,0 -5.004,-2.241 -5.004,-5.004 0,-0.454 0.079,-0.883 0.192,-1.3 l -8.5,-4.347 c -0.917,1.161 -2.323,1.921 -3.916,1.921 -2.765,0 -5.003,-2.242 -5.003,-5.006 0,-2.765 2.238,-5.006 5.003,-5.006 1.637,0 3.076,0.797 3.991,2.01 l 8.46,-4.327 c -0.132,-0.45 -0.23,-0.916 -0.23,-1.408 0,-2.765 2.242,-5.005 5.004,-5.005 2.77,0 5.009,2.24 5.009,5.005 C 5.009,-2.239 2.77,0 0,0"
             id="path686"
             style="fill:#7e2a97;fill-opacity:1;fill-rule:nonzero;stroke:none" /></g><g
           transform="translate(303.8101,455.3188)"
           id="g688"><path
             d="m 0,0 c -1.59,0 -2.993,-0.758 -3.91,-1.918 l -8.501,4.347 c 0.112,0.415 0.191,0.845 0.191,1.296 0,0.492 -0.094,0.954 -0.226,1.404 l 8.463,4.327 c 0.911,-1.212 2.352,-2.005 3.986,-2.005 2.768,0 5.007,2.24 5.007,5.006 0,2.763 -2.239,5.004 -5.007,5.004 -2.763,0 -5.004,-2.241 -5.004,-5.004 0,-0.454 0.079,-0.883 0.192,-1.3 l -8.5,-4.347 c -0.917,1.161 -2.323,1.921 -3.916,1.921 -2.765,0 -5.003,-2.242 -5.003,-5.006 0,-2.765 2.238,-5.006 5.003,-5.006 1.637,0 3.076,0.797 3.991,2.01 l 8.46,-4.327 c -0.132,-0.45 -0.23,-0.916 -0.23,-1.408 0,-2.765 2.242,-5.005 5.004,-5.005 2.77,0 5.009,2.24 5.009,5.005 C 5.009,-2.239 2.77,0 0,0 z"
             id="path690"
             style="fill:none;stroke:#7e2a97;stroke-width:1;stroke-linecap:butt;stroke-linejoin:miter;stroke-miterlimit:10;stroke-opacity:1;stroke-dasharray:none" /></g><g
           transform="translate(354.4917,534.187)"
           id="g692"><path
             d="m 0,0 0.019,-0.817 c 0,-8.343 -6.347,-17.954 -17.954,-17.954 -3.564,0 -6.879,1.046 -9.67,2.838 0.495,-0.06 0.996,-0.091 1.504,-0.091 2.956,0 5.679,1.011 7.837,2.7 -2.761,0.053 -5.092,1.877 -5.893,4.383 0.387,-0.072 0.776,-0.109 1.189,-0.109 0.575,0 1.132,0.075 1.66,0.218 -2.887,0.582 -5.061,3.128 -5.061,6.186 l 0,0.08 c 0.854,-0.476 1.824,-0.756 2.856,-0.791 -1.689,1.129 -2.802,3.063 -2.802,5.25 0,1.157 0.306,2.239 0.85,3.171 3.11,-3.819 7.761,-6.328 13.005,-6.591 -0.109,0.46 -0.163,0.945 -0.163,1.436 0,3.485 2.825,6.31 6.309,6.31 1.815,0 3.455,-0.767 4.608,-1.992 C -0.27,4.511 1.082,5.036 2.303,5.756 1.829,4.282 0.832,3.046 -0.473,2.265 0.801,2.414 2.02,2.759 3.149,3.259 2.306,1.996 1.232,0.885 0,0 m -12.751,19.874 c -14.153,0 -25.628,-11.475 -25.628,-25.627 0,-14.153 11.475,-25.628 25.628,-25.628 14.152,0 25.627,11.475 25.627,25.628 0,14.155 -11.475,25.627 -25.627,25.627"
             id="path694"
             style="fill:#2b76c2;fill-opacity:1;fill-rule:nonzero;stroke:none" /></g><g
           transform="translate(164.9771,676.6469)"
           id="g696"><path
             d="m 0,0 -4.169,-0.002 c -3.268,0 -3.899,-1.554 -3.899,-3.832 l 0,-5.025 7.793,0 -0.003,-7.871 -7.79,0 0,-20.197 -8.129,0 0,20.197 -6.796,0 0,7.871 6.796,0 0,5.804 c 0,6.736 4.115,10.405 10.123,10.405 L 0,7.34 0,0 z m -11.497,15.346 c -16.643,0 -30.134,-13.492 -30.134,-30.135 0,-16.642 13.491,-30.134 30.134,-30.134 16.642,0 30.135,13.492 30.135,30.134 0,16.643 -13.493,30.135 -30.135,30.135"
             id="path698"
             style="fill:#2b76c2;fill-opacity:1;fill-rule:nonzero;stroke:none" /></g></g></g></g></svg>